<svg aria-roledescription="sequence" role="graphics-document document" viewBox="-50 -10 2915 2674" style="max-width: 2915px; background-color: rgb(255, 255, 255);" xmlns:xlink="http://www.w3.org/1999/xlink" xmlns="http://www.w3.org/2000/svg" width="100%" id="mermaid-1725372970131"><g><rect class="actor actor-bottom" ry="3" rx="3" name="PaymentForm" height="65" width="150" stroke="#666" fill="#eaeaea" y="2588" x="2443"/><text style="text-anchor: middle; font-size: 16px; font-weight: 400;" class="actor" alignment-baseline="central" dominant-baseline="central" y="2620.5" x="2518"><tspan dy="0" x="2518">PaymentForm</tspan></text></g><g><rect class="actor actor-bottom" ry="3" rx="3" name="DebtForm" height="65" width="150" stroke="#666" fill="#eaeaea" y="2588" x="2056"/><text style="text-anchor: middle; font-size: 16px; font-weight: 400;" class="actor" alignment-baseline="central" dominant-baseline="central" y="2620.5" x="2131"><tspan dy="0" x="2131">DebtForm</tspan></text></g><g><rect class="actor actor-bottom" ry="3" rx="3" name="DebtList" height="65" width="150" stroke="#666" fill="#eaeaea" y="2588" x="1814"/><text style="text-anchor: middle; font-size: 16px; font-weight: 400;" class="actor" alignment-baseline="central" dominant-baseline="central" y="2620.5" x="1889"><tspan dy="0" x="1889">DebtList</tspan></text></g><g><rect class="actor actor-bottom" ry="3" rx="3" name="IncomeExpensesForm" height="65" width="173" stroke="#666" fill="#eaeaea" y="2588" x="1254.5"/><text style="text-anchor: middle; font-size: 16px; font-weight: 400;" class="actor" alignment-baseline="central" dominant-baseline="central" y="2620.5" x="1341"><tspan dy="0" x="1341">IncomeExpensesForm</tspan></text></g><g><rect class="actor actor-bottom" ry="3" rx="3" name="IncomeExpensesMenu" height="65" width="177" stroke="#666" fill="#eaeaea" y="2588" x="964.5"/><text style="text-anchor: middle; font-size: 16px; font-weight: 400;" class="actor" alignment-baseline="central" dominant-baseline="central" y="2620.5" x="1053"><tspan dy="0" x="1053">IncomeExpensesMenu</tspan></text></g><g><rect class="actor actor-bottom" ry="3" rx="3" name="BankAccountsForm" height="65" width="156" stroke="#666" fill="#eaeaea" y="2588" x="700"/><text style="text-anchor: middle; font-size: 16px; font-weight: 400;" class="actor" alignment-baseline="central" dominant-baseline="central" y="2620.5" x="778"><tspan dy="0" x="778">BankAccountsForm</tspan></text></g><g><rect class="actor actor-bottom" ry="3" rx="3" name="Bank" height="65" width="150" stroke="#666" fill="#eaeaea" y="2588" x="444"/><text style="text-anchor: middle; font-size: 16px; font-weight: 400;" class="actor" alignment-baseline="central" dominant-baseline="central" y="2620.5" x="519"><tspan dy="0" x="519">BankLists</tspan></text></g><g><rect class="actor actor-bottom" ry="3" rx="3" name="Home" height="65" width="150" stroke="#666" fill="#eaeaea" y="2588" x="226"/><text style="text-anchor: middle; font-size: 16px; font-weight: 400;" class="actor" alignment-baseline="central" dominant-baseline="central" y="2620.5" x="301"><tspan dy="0" x="301">Home</tspan></text></g><g><line stroke="#999" stroke-width="0.5px" class="200" y2="2588" x2="2518" y1="5" x1="2518" id="actor200"/><g id="root-200"><rect class="actor actor-top" ry="3" rx="3" name="PaymentForm" height="65" width="150" stroke="#666" fill="#eaeaea" y="0" x="2443"/><text style="text-anchor: middle; font-size: 16px; font-weight: 400;" class="actor" alignment-baseline="central" dominant-baseline="central" y="32.5" x="2518"><tspan dy="0" x="2518">PaymentForm</tspan></text></g></g><g><line stroke="#999" stroke-width="0.5px" class="200" y2="2588" x2="2131" y1="5" x1="2131" id="actor199"/><g id="root-199"><rect class="actor actor-top" ry="3" rx="3" name="DebtForm" height="65" width="150" stroke="#666" fill="#eaeaea" y="0" x="2056"/><text style="text-anchor: middle; font-size: 16px; font-weight: 400;" class="actor" alignment-baseline="central" dominant-baseline="central" y="32.5" x="2131"><tspan dy="0" x="2131">DebtForm</tspan></text></g></g><g><line stroke="#999" stroke-width="0.5px" class="200" y2="2588" x2="1889" y1="5" x1="1889" id="actor198"/><g id="root-198"><rect class="actor actor-top" ry="3" rx="3" name="DebtList" height="65" width="150" stroke="#666" fill="#eaeaea" y="0" x="1814"/><text style="text-anchor: middle; font-size: 16px; font-weight: 400;" class="actor" alignment-baseline="central" dominant-baseline="central" y="32.5" x="1889"><tspan dy="0" x="1889">DebtList</tspan></text></g></g><g><line stroke="#999" stroke-width="0.5px" class="200" y2="2588" x2="1341" y1="5" x1="1341" id="actor197"/><g id="root-197"><rect class="actor actor-top" ry="3" rx="3" name="IncomeExpensesForm" height="65" width="173" stroke="#666" fill="#eaeaea" y="0" x="1254.5"/><text style="text-anchor: middle; font-size: 16px; font-weight: 400;" class="actor" alignment-baseline="central" dominant-baseline="central" y="32.5" x="1341"><tspan dy="0" x="1341">IncomeExpensesForm</tspan></text></g></g><g><line stroke="#999" stroke-width="0.5px" class="200" y2="2588" x2="1053" y1="5" x1="1053" id="actor196"/><g id="root-196"><rect class="actor actor-top" ry="3" rx="3" name="IncomeExpensesMenu" height="65" width="177" stroke="#666" fill="#eaeaea" y="0" x="964.5"/><text style="text-anchor: middle; font-size: 16px; font-weight: 400;" class="actor" alignment-baseline="central" dominant-baseline="central" y="32.5" x="1053"><tspan dy="0" x="1053">IncomeExpensesMenu</tspan></text></g></g><g><line stroke="#999" stroke-width="0.5px" class="200" y2="2588" x2="778" y1="5" x1="778" id="actor195"/><g id="root-195"><rect class="actor actor-top" ry="3" rx="3" name="BankAccountsForm" height="65" width="156" stroke="#666" fill="#eaeaea" y="0" x="700"/><text style="text-anchor: middle; font-size: 16px; font-weight: 400;" class="actor" alignment-baseline="central" dominant-baseline="central" y="32.5" x="778"><tspan dy="0" x="778">BankAccountsForm</tspan></text></g></g><g><line stroke="#999" stroke-width="0.5px" class="200" y2="2588" x2="519" y1="5" x1="519" id="actor194"/><g id="root-194"><rect class="actor actor-top" ry="3" rx="3" name="Bank" height="65" width="150" stroke="#666" fill="#eaeaea" y="0" x="444"/><text style="text-anchor: middle; font-size: 16px; font-weight: 400;" class="actor" alignment-baseline="central" dominant-baseline="central" y="32.5" x="519"><tspan dy="0" x="519">BankLists</tspan></text></g></g><g><line stroke="#999" stroke-width="0.5px" class="200" y2="2588" x2="301" y1="5" x1="301" id="actor193"/><g id="root-193"><rect class="actor actor-top" ry="3" rx="3" name="Home" height="65" width="150" stroke="#666" fill="#eaeaea" y="0" x="226"/><text style="text-anchor: middle; font-size: 16px; font-weight: 400;" class="actor" alignment-baseline="central" dominant-baseline="central" y="32.5" x="301"><tspan dy="0" x="301">Home</tspan></text></g></g><style>#mermaid-1725372970131{font-family:"trebuchet ms",verdana,arial,sans-serif;font-size:16px;fill:#333;}#mermaid-1725372970131 .error-icon{fill:#552222;}#mermaid-1725372970131 .error-text{fill:#552222;stroke:#552222;}#mermaid-1725372970131 .edge-thickness-normal{stroke-width:2px;}#mermaid-1725372970131 .edge-thickness-thick{stroke-width:3.5px;}#mermaid-1725372970131 .edge-pattern-solid{stroke-dasharray:0;}#mermaid-1725372970131 .edge-pattern-dashed{stroke-dasharray:3;}#mermaid-1725372970131 .edge-pattern-dotted{stroke-dasharray:2;}#mermaid-1725372970131 .marker{fill:#333333;stroke:#333333;}#mermaid-1725372970131 .marker.cross{stroke:#333333;}#mermaid-1725372970131 svg{font-family:"trebuchet ms",verdana,arial,sans-serif;font-size:16px;}#mermaid-1725372970131 .actor{stroke:hsl(259.6261682243, 59.7765363128%, 87.9019607843%);fill:#ECECFF;}#mermaid-1725372970131 text.actor&gt;tspan{fill:black;stroke:none;}#mermaid-1725372970131 .actor-line{stroke:grey;}#mermaid-1725372970131 .messageLine0{stroke-width:1.5;stroke-dasharray:none;stroke:#333;}#mermaid-1725372970131 .messageLine1{stroke-width:1.5;stroke-dasharray:2,2;stroke:#333;}#mermaid-1725372970131 #arrowhead path{fill:#333;stroke:#333;}#mermaid-1725372970131 .sequenceNumber{fill:white;}#mermaid-1725372970131 #sequencenumber{fill:#333;}#mermaid-1725372970131 #crosshead path{fill:#333;stroke:#333;}#mermaid-1725372970131 .messageText{fill:#333;stroke:none;}#mermaid-1725372970131 .labelBox{stroke:hsl(259.6261682243, 59.7765363128%, 87.9019607843%);fill:#ECECFF;}#mermaid-1725372970131 .labelText,#mermaid-1725372970131 .labelText&gt;tspan{fill:black;stroke:none;}#mermaid-1725372970131 .loopText,#mermaid-1725372970131 .loopText&gt;tspan{fill:black;stroke:none;}#mermaid-1725372970131 .loopLine{stroke-width:2px;stroke-dasharray:2,2;stroke:hsl(259.6261682243, 59.7765363128%, 87.9019607843%);fill:hsl(259.6261682243, 59.7765363128%, 87.9019607843%);}#mermaid-1725372970131 .note{stroke:#aaaa33;fill:#fff5ad;}#mermaid-1725372970131 .noteText,#mermaid-1725372970131 .noteText&gt;tspan{fill:black;stroke:none;}#mermaid-1725372970131 .activation0{fill:#f4f4f4;stroke:#666;}#mermaid-1725372970131 .activation1{fill:#f4f4f4;stroke:#666;}#mermaid-1725372970131 .activation2{fill:#f4f4f4;stroke:#666;}#mermaid-1725372970131 .actorPopupMenu{position:absolute;}#mermaid-1725372970131 .actorPopupMenuPanel{position:absolute;fill:#ECECFF;box-shadow:0px 8px 16px 0px rgba(0,0,0,0.2);filter:drop-shadow(3px 5px 2px rgb(0 0 0 / 0.4));}#mermaid-1725372970131 .actor-man line{stroke:hsl(259.6261682243, 59.7765363128%, 87.9019607843%);fill:#ECECFF;}#mermaid-1725372970131 .actor-man circle,#mermaid-1725372970131 line{stroke:hsl(259.6261682243, 59.7765363128%, 87.9019607843%);fill:#ECECFF;stroke-width:2px;}#mermaid-1725372970131 :root{--mermaid-font-family:"trebuchet ms",verdana,arial,sans-serif;}</style><g/><defs><symbol height="24" width="24" id="computer"><path d="M2 2v13h20v-13h-20zm18 11h-16v-9h16v9zm-10.228 6l.466-1h3.524l.467 1h-4.457zm14.228 3h-24l2-6h2.104l-1.33 4h18.45l-1.297-4h2.073l2 6zm-5-10h-14v-7h14v7z" transform="scale(.5)"/></symbol></defs><defs><symbol clip-rule="evenodd" fill-rule="evenodd" id="database"><path d="M12.258.001l.256.004.255.005.253.008.251.01.249.012.247.015.246.016.242.019.241.02.239.023.236.024.233.027.231.028.229.031.225.032.223.034.22.036.217.038.214.04.211.041.208.043.205.045.201.046.198.048.194.05.191.051.187.053.183.054.18.056.175.057.172.059.168.06.163.061.16.063.155.064.15.066.074.033.073.033.071.034.07.034.069.035.068.035.067.035.066.035.064.036.064.036.062.036.06.036.06.037.058.037.058.037.055.038.055.038.053.038.052.038.051.039.05.039.048.039.047.039.045.04.044.04.043.04.041.04.04.041.039.041.037.041.036.041.034.041.033.042.032.042.03.042.029.042.027.042.026.043.024.043.023.043.021.043.02.043.018.044.017.043.015.044.013.044.012.044.011.045.009.044.007.045.006.045.004.045.002.045.001.045v17l-.001.045-.002.045-.004.045-.006.045-.007.045-.009.044-.011.045-.012.044-.013.044-.015.044-.017.043-.018.044-.02.043-.021.043-.023.043-.024.043-.026.043-.027.042-.029.042-.03.042-.032.042-.033.042-.034.041-.036.041-.037.041-.039.041-.04.041-.041.04-.043.04-.044.04-.045.04-.047.039-.048.039-.05.039-.051.039-.052.038-.053.038-.055.038-.055.038-.058.037-.058.037-.06.037-.06.036-.062.036-.064.036-.064.036-.066.035-.067.035-.068.035-.069.035-.07.034-.071.034-.073.033-.074.033-.15.066-.155.064-.16.063-.163.061-.168.06-.172.059-.175.057-.18.056-.183.054-.187.053-.191.051-.194.05-.198.048-.201.046-.205.045-.208.043-.211.041-.214.04-.217.038-.22.036-.223.034-.225.032-.229.031-.231.028-.233.027-.236.024-.239.023-.241.02-.242.019-.246.016-.247.015-.249.012-.251.01-.253.008-.255.005-.256.004-.258.001-.258-.001-.256-.004-.255-.005-.253-.008-.251-.01-.249-.012-.247-.015-.245-.016-.243-.019-.241-.02-.238-.023-.236-.024-.234-.027-.231-.028-.228-.031-.226-.032-.223-.034-.22-.036-.217-.038-.214-.04-.211-.041-.208-.043-.204-.045-.201-.046-.198-.048-.195-.05-.19-.051-.187-.053-.184-.054-.179-.056-.176-.057-.172-.059-.167-.06-.164-.061-.159-.063-.155-.064-.151-.066-.074-.033-.072-.033-.072-.034-.07-.034-.069-.035-.068-.035-.067-.035-.066-.035-.064-.036-.063-.036-.062-.036-.061-.036-.06-.037-.058-.037-.057-.037-.056-.038-.055-.038-.053-.038-.052-.038-.051-.039-.049-.039-.049-.039-.046-.039-.046-.04-.044-.04-.043-.04-.041-.04-.04-.041-.039-.041-.037-.041-.036-.041-.034-.041-.033-.042-.032-.042-.03-.042-.029-.042-.027-.042-.026-.043-.024-.043-.023-.043-.021-.043-.02-.043-.018-.044-.017-.043-.015-.044-.013-.044-.012-.044-.011-.045-.009-.044-.007-.045-.006-.045-.004-.045-.002-.045-.001-.045v-17l.001-.045.002-.045.004-.045.006-.045.007-.045.009-.044.011-.045.012-.044.013-.044.015-.044.017-.043.018-.044.02-.043.021-.043.023-.043.024-.043.026-.043.027-.042.029-.042.03-.042.032-.042.033-.042.034-.041.036-.041.037-.041.039-.041.04-.041.041-.04.043-.04.044-.04.046-.04.046-.039.049-.039.049-.039.051-.039.052-.038.053-.038.055-.038.056-.038.057-.037.058-.037.06-.037.061-.036.062-.036.063-.036.064-.036.066-.035.067-.035.068-.035.069-.035.07-.034.072-.034.072-.033.074-.033.151-.066.155-.064.159-.063.164-.061.167-.06.172-.059.176-.057.179-.056.184-.054.187-.053.19-.051.195-.05.198-.048.201-.046.204-.045.208-.043.211-.041.214-.04.217-.038.22-.036.223-.034.226-.032.228-.031.231-.028.234-.027.236-.024.238-.023.241-.02.243-.019.245-.016.247-.015.249-.012.251-.01.253-.008.255-.005.256-.004.258-.001.258.001zm-9.258 20.499v.01l.001.021.003.021.004.022.005.021.006.022.007.022.009.023.01.022.011.023.012.023.013.023.015.023.016.024.017.023.018.024.019.024.021.024.022.025.023.024.024.025.052.049.056.05.061.051.066.051.07.051.075.051.079.052.084.052.088.052.092.052.097.052.102.051.105.052.11.052.114.051.119.051.123.051.127.05.131.05.135.05.139.048.144.049.147.047.152.047.155.047.16.045.163.045.167.043.171.043.176.041.178.041.183.039.187.039.19.037.194.035.197.035.202.033.204.031.209.03.212.029.216.027.219.025.222.024.226.021.23.02.233.018.236.016.24.015.243.012.246.01.249.008.253.005.256.004.259.001.26-.001.257-.004.254-.005.25-.008.247-.011.244-.012.241-.014.237-.016.233-.018.231-.021.226-.021.224-.024.22-.026.216-.027.212-.028.21-.031.205-.031.202-.034.198-.034.194-.036.191-.037.187-.039.183-.04.179-.04.175-.042.172-.043.168-.044.163-.045.16-.046.155-.046.152-.047.148-.048.143-.049.139-.049.136-.05.131-.05.126-.05.123-.051.118-.052.114-.051.11-.052.106-.052.101-.052.096-.052.092-.052.088-.053.083-.051.079-.052.074-.052.07-.051.065-.051.06-.051.056-.05.051-.05.023-.024.023-.025.021-.024.02-.024.019-.024.018-.024.017-.024.015-.023.014-.024.013-.023.012-.023.01-.023.01-.022.008-.022.006-.022.006-.022.004-.022.004-.021.001-.021.001-.021v-4.127l-.077.055-.08.053-.083.054-.085.053-.087.052-.09.052-.093.051-.095.05-.097.05-.1.049-.102.049-.105.048-.106.047-.109.047-.111.046-.114.045-.115.045-.118.044-.12.043-.122.042-.124.042-.126.041-.128.04-.13.04-.132.038-.134.038-.135.037-.138.037-.139.035-.142.035-.143.034-.144.033-.147.032-.148.031-.15.03-.151.03-.153.029-.154.027-.156.027-.158.026-.159.025-.161.024-.162.023-.163.022-.165.021-.166.02-.167.019-.169.018-.169.017-.171.016-.173.015-.173.014-.175.013-.175.012-.177.011-.178.01-.179.008-.179.008-.181.006-.182.005-.182.004-.184.003-.184.002h-.37l-.184-.002-.184-.003-.182-.004-.182-.005-.181-.006-.179-.008-.179-.008-.178-.01-.176-.011-.176-.012-.175-.013-.173-.014-.172-.015-.171-.016-.17-.017-.169-.018-.167-.019-.166-.02-.165-.021-.163-.022-.162-.023-.161-.024-.159-.025-.157-.026-.156-.027-.155-.027-.153-.029-.151-.03-.15-.03-.148-.031-.146-.032-.145-.033-.143-.034-.141-.035-.14-.035-.137-.037-.136-.037-.134-.038-.132-.038-.13-.04-.128-.04-.126-.041-.124-.042-.122-.042-.12-.044-.117-.043-.116-.045-.113-.045-.112-.046-.109-.047-.106-.047-.105-.048-.102-.049-.1-.049-.097-.05-.095-.05-.093-.052-.09-.051-.087-.052-.085-.053-.083-.054-.08-.054-.077-.054v4.127zm0-5.654v.011l.001.021.003.021.004.021.005.022.006.022.007.022.009.022.01.022.011.023.012.023.013.023.015.024.016.023.017.024.018.024.019.024.021.024.022.024.023.025.024.024.052.05.056.05.061.05.066.051.07.051.075.052.079.051.084.052.088.052.092.052.097.052.102.052.105.052.11.051.114.051.119.052.123.05.127.051.131.05.135.049.139.049.144.048.147.048.152.047.155.046.16.045.163.045.167.044.171.042.176.042.178.04.183.04.187.038.19.037.194.036.197.034.202.033.204.032.209.03.212.028.216.027.219.025.222.024.226.022.23.02.233.018.236.016.24.014.243.012.246.01.249.008.253.006.256.003.259.001.26-.001.257-.003.254-.006.25-.008.247-.01.244-.012.241-.015.237-.016.233-.018.231-.02.226-.022.224-.024.22-.025.216-.027.212-.029.21-.03.205-.032.202-.033.198-.035.194-.036.191-.037.187-.039.183-.039.179-.041.175-.042.172-.043.168-.044.163-.045.16-.045.155-.047.152-.047.148-.048.143-.048.139-.05.136-.049.131-.05.126-.051.123-.051.118-.051.114-.052.11-.052.106-.052.101-.052.096-.052.092-.052.088-.052.083-.052.079-.052.074-.051.07-.052.065-.051.06-.05.056-.051.051-.049.023-.025.023-.024.021-.025.02-.024.019-.024.018-.024.017-.024.015-.023.014-.023.013-.024.012-.022.01-.023.01-.023.008-.022.006-.022.006-.022.004-.021.004-.022.001-.021.001-.021v-4.139l-.077.054-.08.054-.083.054-.085.052-.087.053-.09.051-.093.051-.095.051-.097.05-.1.049-.102.049-.105.048-.106.047-.109.047-.111.046-.114.045-.115.044-.118.044-.12.044-.122.042-.124.042-.126.041-.128.04-.13.039-.132.039-.134.038-.135.037-.138.036-.139.036-.142.035-.143.033-.144.033-.147.033-.148.031-.15.03-.151.03-.153.028-.154.028-.156.027-.158.026-.159.025-.161.024-.162.023-.163.022-.165.021-.166.02-.167.019-.169.018-.169.017-.171.016-.173.015-.173.014-.175.013-.175.012-.177.011-.178.009-.179.009-.179.007-.181.007-.182.005-.182.004-.184.003-.184.002h-.37l-.184-.002-.184-.003-.182-.004-.182-.005-.181-.007-.179-.007-.179-.009-.178-.009-.176-.011-.176-.012-.175-.013-.173-.014-.172-.015-.171-.016-.17-.017-.169-.018-.167-.019-.166-.02-.165-.021-.163-.022-.162-.023-.161-.024-.159-.025-.157-.026-.156-.027-.155-.028-.153-.028-.151-.03-.15-.03-.148-.031-.146-.033-.145-.033-.143-.033-.141-.035-.14-.036-.137-.036-.136-.037-.134-.038-.132-.039-.13-.039-.128-.04-.126-.041-.124-.042-.122-.043-.12-.043-.117-.044-.116-.044-.113-.046-.112-.046-.109-.046-.106-.047-.105-.048-.102-.049-.1-.049-.097-.05-.095-.051-.093-.051-.09-.051-.087-.053-.085-.052-.083-.054-.08-.054-.077-.054v4.139zm0-5.666v.011l.001.02.003.022.004.021.005.022.006.021.007.022.009.023.01.022.011.023.012.023.013.023.015.023.016.024.017.024.018.023.019.024.021.025.022.024.023.024.024.025.052.05.056.05.061.05.066.051.07.051.075.052.079.051.084.052.088.052.092.052.097.052.102.052.105.051.11.052.114.051.119.051.123.051.127.05.131.05.135.05.139.049.144.048.147.048.152.047.155.046.16.045.163.045.167.043.171.043.176.042.178.04.183.04.187.038.19.037.194.036.197.034.202.033.204.032.209.03.212.028.216.027.219.025.222.024.226.021.23.02.233.018.236.017.24.014.243.012.246.01.249.008.253.006.256.003.259.001.26-.001.257-.003.254-.006.25-.008.247-.01.244-.013.241-.014.237-.016.233-.018.231-.02.226-.022.224-.024.22-.025.216-.027.212-.029.21-.03.205-.032.202-.033.198-.035.194-.036.191-.037.187-.039.183-.039.179-.041.175-.042.172-.043.168-.044.163-.045.16-.045.155-.047.152-.047.148-.048.143-.049.139-.049.136-.049.131-.051.126-.05.123-.051.118-.052.114-.051.11-.052.106-.052.101-.052.096-.052.092-.052.088-.052.083-.052.079-.052.074-.052.07-.051.065-.051.06-.051.056-.05.051-.049.023-.025.023-.025.021-.024.02-.024.019-.024.018-.024.017-.024.015-.023.014-.024.013-.023.012-.023.01-.022.01-.023.008-.022.006-.022.006-.022.004-.022.004-.021.001-.021.001-.021v-4.153l-.077.054-.08.054-.083.053-.085.053-.087.053-.09.051-.093.051-.095.051-.097.05-.1.049-.102.048-.105.048-.106.048-.109.046-.111.046-.114.046-.115.044-.118.044-.12.043-.122.043-.124.042-.126.041-.128.04-.13.039-.132.039-.134.038-.135.037-.138.036-.139.036-.142.034-.143.034-.144.033-.147.032-.148.032-.15.03-.151.03-.153.028-.154.028-.156.027-.158.026-.159.024-.161.024-.162.023-.163.023-.165.021-.166.02-.167.019-.169.018-.169.017-.171.016-.173.015-.173.014-.175.013-.175.012-.177.01-.178.01-.179.009-.179.007-.181.006-.182.006-.182.004-.184.003-.184.001-.185.001-.185-.001-.184-.001-.184-.003-.182-.004-.182-.006-.181-.006-.179-.007-.179-.009-.178-.01-.176-.01-.176-.012-.175-.013-.173-.014-.172-.015-.171-.016-.17-.017-.169-.018-.167-.019-.166-.02-.165-.021-.163-.023-.162-.023-.161-.024-.159-.024-.157-.026-.156-.027-.155-.028-.153-.028-.151-.03-.15-.03-.148-.032-.146-.032-.145-.033-.143-.034-.141-.034-.14-.036-.137-.036-.136-.037-.134-.038-.132-.039-.13-.039-.128-.041-.126-.041-.124-.041-.122-.043-.12-.043-.117-.044-.116-.044-.113-.046-.112-.046-.109-.046-.106-.048-.105-.048-.102-.048-.1-.05-.097-.049-.095-.051-.093-.051-.09-.052-.087-.052-.085-.053-.083-.053-.08-.054-.077-.054v4.153zm8.74-8.179l-.257.004-.254.005-.25.008-.247.011-.244.012-.241.014-.237.016-.233.018-.231.021-.226.022-.224.023-.22.026-.216.027-.212.028-.21.031-.205.032-.202.033-.198.034-.194.036-.191.038-.187.038-.183.04-.179.041-.175.042-.172.043-.168.043-.163.045-.16.046-.155.046-.152.048-.148.048-.143.048-.139.049-.136.05-.131.05-.126.051-.123.051-.118.051-.114.052-.11.052-.106.052-.101.052-.096.052-.092.052-.088.052-.083.052-.079.052-.074.051-.07.052-.065.051-.06.05-.056.05-.051.05-.023.025-.023.024-.021.024-.02.025-.019.024-.018.024-.017.023-.015.024-.014.023-.013.023-.012.023-.01.023-.01.022-.008.022-.006.023-.006.021-.004.022-.004.021-.001.021-.001.021.001.021.001.021.004.021.004.022.006.021.006.023.008.022.01.022.01.023.012.023.013.023.014.023.015.024.017.023.018.024.019.024.02.025.021.024.023.024.023.025.051.05.056.05.06.05.065.051.07.052.074.051.079.052.083.052.088.052.092.052.096.052.101.052.106.052.11.052.114.052.118.051.123.051.126.051.131.05.136.05.139.049.143.048.148.048.152.048.155.046.16.046.163.045.168.043.172.043.175.042.179.041.183.04.187.038.191.038.194.036.198.034.202.033.205.032.21.031.212.028.216.027.22.026.224.023.226.022.231.021.233.018.237.016.241.014.244.012.247.011.25.008.254.005.257.004.26.001.26-.001.257-.004.254-.005.25-.008.247-.011.244-.012.241-.014.237-.016.233-.018.231-.021.226-.022.224-.023.22-.026.216-.027.212-.028.21-.031.205-.032.202-.033.198-.034.194-.036.191-.038.187-.038.183-.04.179-.041.175-.042.172-.043.168-.043.163-.045.16-.046.155-.046.152-.048.148-.048.143-.048.139-.049.136-.05.131-.05.126-.051.123-.051.118-.051.114-.052.11-.052.106-.052.101-.052.096-.052.092-.052.088-.052.083-.052.079-.052.074-.051.07-.052.065-.051.06-.05.056-.05.051-.05.023-.025.023-.024.021-.024.02-.025.019-.024.018-.024.017-.023.015-.024.014-.023.013-.023.012-.023.01-.023.01-.022.008-.022.006-.023.006-.021.004-.022.004-.021.001-.021.001-.021-.001-.021-.001-.021-.004-.021-.004-.022-.006-.021-.006-.023-.008-.022-.01-.022-.01-.023-.012-.023-.013-.023-.014-.023-.015-.024-.017-.023-.018-.024-.019-.024-.02-.025-.021-.024-.023-.024-.023-.025-.051-.05-.056-.05-.06-.05-.065-.051-.07-.052-.074-.051-.079-.052-.083-.052-.088-.052-.092-.052-.096-.052-.101-.052-.106-.052-.11-.052-.114-.052-.118-.051-.123-.051-.126-.051-.131-.05-.136-.05-.139-.049-.143-.048-.148-.048-.152-.048-.155-.046-.16-.046-.163-.045-.168-.043-.172-.043-.175-.042-.179-.041-.183-.04-.187-.038-.191-.038-.194-.036-.198-.034-.202-.033-.205-.032-.21-.031-.212-.028-.216-.027-.22-.026-.224-.023-.226-.022-.231-.021-.233-.018-.237-.016-.241-.014-.244-.012-.247-.011-.25-.008-.254-.005-.257-.004-.26-.001-.26.001z" transform="scale(.5)"/></symbol></defs><defs><symbol height="24" width="24" id="clock"><path d="M12 2c5.514 0 10 4.486 10 10s-4.486 10-10 10-10-4.486-10-10 4.486-10 10-10zm0-2c-6.627 0-12 5.373-12 12s5.373 12 12 12 12-5.373 12-12-5.373-12-12-12zm5.848 12.459c.202.038.202.333.001.372-1.907.361-6.045 1.111-6.547 1.111-.719 0-1.301-.582-1.301-1.301 0-.512.77-5.447 1.125-7.445.034-.192.312-.181.343.014l.985 6.238 5.394 1.011z" transform="scale(.5)"/></symbol></defs><defs><marker orient="auto" markerHeight="12" markerWidth="12" markerUnits="userSpaceOnUse" refY="5" refX="7.9" id="arrowhead"><path d="M 0 0 L 10 5 L 0 10 z"/></marker></defs><defs><marker refY="4.5" refX="4" orient="auto" markerHeight="8" markerWidth="15" id="crosshead"><path style="stroke-dasharray: 0, 0;" d="M 1,2 L 6,7 M 6,2 L 1,7" stroke-width="1pt" stroke="#000000" fill="none"/></marker></defs><defs><marker orient="auto" markerHeight="28" markerWidth="20" refY="7" refX="15.5" id="filled-head"><path d="M 18,7 L9,13 L14,7 L9,1 Z"/></marker></defs><defs><marker orient="auto" markerHeight="40" markerWidth="60" refY="15" refX="15" id="sequencenumber"><circle r="6" cy="15" cx="15"/></marker></defs><g><rect class="activation0" ry="0" rx="0" height="2439" width="10" stroke="#666" fill="#EDF2AE" y="119" x="296"/></g><g><rect class="activation0" ry="0" rx="0" height="384" width="10" stroke="#666" fill="#EDF2AE" y="263" x="514"/></g><g><rect class="activation0" ry="0" rx="0" height="280" width="10" stroke="#666" fill="#EDF2AE" y="315" x="773"/></g><g><rect class="note" ry="0" rx="0" height="138" width="225" stroke="#666" fill="#EDF2AE" y="405" x="803"/><text style="font-size: 16px; font-weight: 400;" dy="1em" class="noteText" alignment-baseline="middle" dominant-baseline="middle" text-anchor="middle" y="410" x="916"><tspan x="916">Form details:</tspan></text><text style="font-size: 16px; font-weight: 400;" dy="1em" class="noteText" alignment-baseline="middle" dominant-baseline="middle" text-anchor="middle" y="429" x="916"><tspan x="916">1.ชื่อบัญชี</tspan></text><text style="font-size: 16px; font-weight: 400;" dy="1em" class="noteText" alignment-baseline="middle" dominant-baseline="middle" text-anchor="middle" y="450" x="916"><tspan x="916">2.เลขบัญชี(ใช้เป็น id ของบัญชี)</tspan></text><text style="font-size: 16px; font-weight: 400;" dy="1em" class="noteText" alignment-baseline="middle" dominant-baseline="middle" text-anchor="middle" y="469" x="916"><tspan x="916">3.ชื่อที่ใช้แสดง</tspan></text><text style="font-size: 16px; font-weight: 400;" dy="1em" class="noteText" alignment-baseline="middle" dominant-baseline="middle" text-anchor="middle" y="490" x="916"><tspan x="916">4.ธนาคาร</tspan></text><text style="font-size: 16px; font-weight: 400;" dy="1em" class="noteText" alignment-baseline="middle" dominant-baseline="middle" text-anchor="middle" y="509" x="916"><tspan x="916">5.ยอดเงินคงเหลือในบัญชีล่าสุด</tspan></text></g><g><line class="loopLine" y2="173" x2="1038" y1="173" x1="286"/><line class="loopLine" y2="657" x2="1038" y1="173" x1="1038"/><line class="loopLine" y2="657" x2="1038" y1="657" x1="286"/><line class="loopLine" y2="657" x2="286" y1="173" x1="286"/><polygon class="labelBox" points="286,173 336,173 336,186 327.6,193 286,193"/><text style="font-size: 16px; font-weight: 400;" class="labelText" alignment-baseline="middle" dominant-baseline="middle" text-anchor="middle" y="186" x="311">loop</text><text style="font-size: 16px; font-weight: 400;" class="loopText" text-anchor="middle" y="191" x="687"><tspan x="687">[add BankAccounts]</tspan></text></g><g><line class="loopLine" y2="127" x2="1048" y1="127" x1="276"/><line class="loopLine" y2="667" x2="1048" y1="127" x1="1048"/><line class="loopLine" y2="667" x2="1048" y1="667" x1="276"/><line class="loopLine" y2="667" x2="276" y1="127" x1="276"/><polygon class="labelBox" points="276,127 326,127 326,140 317.6,147 276,147"/><text style="font-size: 16px; font-weight: 400;" class="labelText" alignment-baseline="middle" dominant-baseline="middle" text-anchor="middle" y="140" x="301">opt</text><text style="font-size: 16px; font-weight: 400;" class="loopText" text-anchor="middle" y="145" x="687"><tspan x="687">[In case of new user]</tspan></text></g><g><rect class="activation0" ry="0" rx="0" height="740" width="10" stroke="#666" fill="#EDF2AE" y="767" x="1048"/></g><g><rect class="activation0" ry="0" rx="0" height="636" width="10" stroke="#666" fill="#EDF2AE" y="819" x="1336"/></g><g><rect class="note" ry="0" rx="0" height="176" width="498" stroke="#666" fill="#EDF2AE" y="873" x="1366"/><text style="font-size: 16px; font-weight: 400;" dy="1em" class="noteText" alignment-baseline="middle" dominant-baseline="middle" text-anchor="middle" y="878" x="1615"><tspan x="1615">Form details:</tspan></text><text style="font-size: 16px; font-weight: 400;" dy="1em" class="noteText" alignment-baseline="middle" dominant-baseline="middle" text-anchor="middle" y="897" x="1615"><tspan x="1615">1.วันที่และเวลา</tspan></text><text style="font-size: 16px; font-weight: 400;" dy="1em" class="noteText" alignment-baseline="middle" dominant-baseline="middle" text-anchor="middle" y="917" x="1615"><tspan x="1615">2.ประเภท(รายรับ/รายจ่าย)</tspan></text><text style="font-size: 16px; font-weight: 400;" dy="1em" class="noteText" alignment-baseline="middle" dominant-baseline="middle" text-anchor="middle" y="936" x="1615"><tspan x="1615">3.หมวดหมู่(หมวดหมู่รายรับ เงินเดือน ดอกเบี้ย ปันผล กำไร ค่าเช่า อื่นๆ</tspan></text><text style="font-size: 16px; font-weight: 400;" dy="1em" class="noteText" alignment-baseline="middle" dominant-baseline="middle" text-anchor="middle" y="956" x="1615"><tspan x="1615">หมวดหมู่รายจ่าย ค่าอาหาร ค่าเดินทาง บัตรเครดิต สาธารณูปโภค หนี้ อื่นๆ)</tspan></text><text style="font-size: 16px; font-weight: 400;" dy="1em" class="noteText" alignment-baseline="middle" dominant-baseline="middle" text-anchor="middle" y="976" x="1615"><tspan x="1615">3.รายละเอียด(ถ้ามี)</tspan></text><text style="font-size: 16px; font-weight: 400;" dy="1em" class="noteText" alignment-baseline="middle" dominant-baseline="middle" text-anchor="middle" y="995" x="1615"><tspan x="1615">4.จำนวนเงิน</tspan></text><text style="font-size: 16px; font-weight: 400;" dy="1em" class="noteText" alignment-baseline="middle" dominant-baseline="middle" text-anchor="middle" y="1014" x="1615"><tspan x="1615">5.บัญชีที่ใช้จ่าย/บัญชีที่รับเงิน</tspan></text></g><g><rect class="activation0" ry="0" rx="0" height="50" width="10" stroke="#666" fill="#EDF2AE" y="1231" x="2724"/></g><g><line class="loopLine" y2="827" x2="2744" y1="827" x1="1205"/><line class="loopLine" y2="1403" x2="2744" y1="827" x1="2744"/><line class="loopLine" y2="1403" x2="2744" y1="1403" x1="1205"/><line class="loopLine" y2="1403" x2="1205" y1="827" x1="1205"/><line style="stroke-dasharray: 3, 3;" class="loopLine" y2="1146" x2="2744" y1="1146" x1="1205"/><polygon class="labelBox" points="1205,827 1255,827 1255,840 1246.6,847 1205,847"/><text style="font-size: 16px; font-weight: 400;" class="labelText" alignment-baseline="middle" dominant-baseline="middle" text-anchor="middle" y="840" x="1230">alt</text><text style="font-size: 16px; font-weight: 400;" class="loopText" text-anchor="middle" y="845" x="1999.5"><tspan x="1999.5">[Manully fill the fields]</tspan></text><text style="font-size: 16px; font-weight: 400;" class="loopText" text-anchor="middle" y="1164" x="1974.5">[use Banking slip]</text></g><g><rect class="activation0" ry="0" rx="0" height="367" width="10" stroke="#666" fill="#EDF2AE" y="1607" x="1884"/></g><g><rect class="activation0" ry="0" rx="0" height="263" width="10" stroke="#666" fill="#EDF2AE" y="1659" x="2126"/></g><g><rect class="note" ry="0" rx="0" height="121" width="337" stroke="#666" fill="#EDF2AE" y="1667" x="2156"/><text style="font-size: 16px; font-weight: 400;" dy="1em" class="noteText" alignment-baseline="middle" dominant-baseline="middle" text-anchor="middle" y="1672" x="2325"><tspan x="2325">Form details:</tspan></text><text style="font-size: 16px; font-weight: 400;" dy="1em" class="noteText" alignment-baseline="middle" dominant-baseline="middle" text-anchor="middle" y="1691" x="2325"><tspan x="2325">1.ชื่อหนี้</tspan></text><text style="font-size: 16px; font-weight: 400;" dy="1em" class="noteText" alignment-baseline="middle" dominant-baseline="middle" text-anchor="middle" y="1712" x="2325"><tspan x="2325">2.หมวดหมู่(บัตรเครดิต สินเชื่อส่วนบุคคล บ้าน รถ)</tspan></text><text style="font-size: 16px; font-weight: 400;" dy="1em" class="noteText" alignment-baseline="middle" dominant-baseline="middle" text-anchor="middle" y="1733" x="2325"><tspan x="2325">3.จำนวนหนี้ทั้งหมด</tspan></text><text style="font-size: 16px; font-weight: 400;" dy="1em" class="noteText" alignment-baseline="middle" dominant-baseline="middle" text-anchor="middle" y="1753" x="2325"><tspan x="2325">4.จำนวนหนี้ที่เหลือ</tspan></text></g><g><rect class="activation0" ry="0" rx="0" height="422" width="10" stroke="#666" fill="#EDF2AE" y="2074" x="1048"/></g><g><rect class="activation0" ry="0" rx="0" height="214" width="10" stroke="#666" fill="#EDF2AE" y="2126" x="1336"/></g><g><rect class="activation0" ry="0" rx="0" height="50" width="10" stroke="#666" fill="#EDF2AE" y="2394" x="1884"/></g><g><line class="loopLine" y2="1984" x2="1904" y1="1984" x1="286"/><line class="loopLine" y2="2506" x2="1904" y1="1984" x1="1904"/><line class="loopLine" y2="2506" x2="1904" y1="2506" x1="286"/><line class="loopLine" y2="2506" x2="286" y1="1984" x1="286"/><polygon class="labelBox" points="286,1984 336,1984 336,1997 327.6,2004 286,2004"/><text style="font-size: 16px; font-weight: 400;" class="labelText" alignment-baseline="middle" dominant-baseline="middle" text-anchor="middle" y="1997" x="311">opt</text><text style="font-size: 16px; font-weight: 400;" class="loopText" text-anchor="middle" y="2002" x="1120"><tspan x="1120">[to add a debt payment]</tspan></text></g><g><line class="loopLine" y2="677" x2="2754" y1="677" x1="64"/><line class="loopLine" y2="2568" x2="2754" y1="677" x1="2754"/><line class="loopLine" y2="2568" x2="2754" y1="2568" x1="64"/><line class="loopLine" y2="2568" x2="64" y1="677" x1="64"/><line style="stroke-dasharray: 3, 3;" class="loopLine" y2="1522" x2="2754" y1="1522" x1="64"/><polygon class="labelBox" points="64,677 114,677 114,690 105.6,697 64,697"/><text style="font-size: 16px; font-weight: 400;" class="labelText" alignment-baseline="middle" dominant-baseline="middle" text-anchor="middle" y="690" x="89">alt</text><text style="font-size: 16px; font-weight: 400;" class="loopText" text-anchor="middle" y="695" x="1434"><tspan x="1434">[add new Income or Expense]</tspan></text><text style="font-size: 16px; font-weight: 400;" class="loopText" text-anchor="middle" y="1540" x="1409">[add a debt]</text></g><line stroke="#999" stroke-width="0.5px" class="200" y2="2588" x2="75" y1="80" x1="75" id="actor192"/><g name="User" class="actor-man actor-top"><line y2="45" x2="75" y1="25" x1="75" id="actor-man-torso192"/><line y2="33" x2="93" y1="33" x1="57" id="actor-man-arms192"/><line y2="45" x2="75" y1="60" x1="57"/><line y2="60" x2="91" y1="45" x1="75"/><circle height="65" width="150" r="15" cy="10" cx="75"/><text style="text-anchor: middle; font-size: 16px; font-weight: 400;" class="actor" alignment-baseline="central" dominant-baseline="central" y="67.5" x="75"><tspan dy="0" x="75">User</tspan></text></g><line stroke="#999" stroke-width="0.5px" class="200" y2="2588" x2="2729" y1="80" x1="2729" id="actor201"/><g name="Ocr" class="actor-man actor-top"><line y2="45" x2="2729" y1="25" x1="2729" id="actor-man-torso201"/><line y2="33" x2="2747" y1="33" x1="2711" id="actor-man-arms201"/><line y2="45" x2="2729" y1="60" x1="2711"/><line y2="60" x2="2745" y1="45" x1="2729"/><circle height="65" width="172" r="15" cy="10" cx="2729"/><text style="text-anchor: middle; font-size: 16px; font-weight: 400;" class="actor" alignment-baseline="central" dominant-baseline="central" y="67.5" x="2729"><tspan dy="0" x="2729">Slip extraction service</tspan></text></g><text style="font-size: 16px; font-weight: 400;" dy="1em" class="messageText" alignment-baseline="middle" dominant-baseline="middle" text-anchor="middle" y="80" x="185">register/login</text><line style="fill: none;" marker-end="url(#arrowhead)" stroke="none" stroke-width="2" class="messageLine0" y2="117" x2="293" y1="117" x1="76"/><text style="font-size: 16px; font-weight: 400;" dy="1em" class="messageText" alignment-baseline="middle" dominant-baseline="middle" text-anchor="middle" y="224" x="409">goto bankLists menu</text><line style="fill: none;" marker-end="url(#arrowhead)" stroke="none" stroke-width="2" class="messageLine0" y2="261" x2="511" y1="261" x1="306"/><text style="font-size: 16px; font-weight: 400;" dy="1em" class="messageText" alignment-baseline="middle" dominant-baseline="middle" text-anchor="middle" y="276" x="647">create a new bank account</text><line style="fill: none;" marker-end="url(#arrowhead)" stroke="none" stroke-width="2" class="messageLine0" y2="313" x2="770" y1="313" x1="524"/><text style="font-size: 16px; font-weight: 400;" dy="1em" class="messageText" alignment-baseline="middle" dominant-baseline="middle" text-anchor="middle" y="328" x="783">fills a new bank account information</text><path style="fill: none;" marker-end="url(#arrowhead)" stroke="none" stroke-width="2" class="messageLine0" d="M 783,365 C 843,355 843,395 783,385"/><text style="font-size: 16px; font-weight: 400;" dy="1em" class="messageText" alignment-baseline="middle" dominant-baseline="middle" text-anchor="middle" y="558" x="650">back to bankLists menu</text><line style="stroke-dasharray: 3, 3; fill: none;" marker-end="url(#arrowhead)" stroke="none" stroke-width="2" class="messageLine1" y2="595" x2="527" y1="595" x1="773"/><text style="font-size: 16px; font-weight: 400;" dy="1em" class="messageText" alignment-baseline="middle" dominant-baseline="middle" text-anchor="middle" y="610" x="412">back to home page</text><line style="stroke-dasharray: 3, 3; fill: none;" marker-end="url(#arrowhead)" stroke="none" stroke-width="2" class="messageLine1" y2="647" x2="309" y1="647" x1="514"/><text style="font-size: 16px; font-weight: 400;" dy="1em" class="messageText" alignment-baseline="middle" dominant-baseline="middle" text-anchor="middle" y="728" x="676">goto Income-Expense menu</text><line style="fill: none;" marker-end="url(#arrowhead)" stroke="none" stroke-width="2" class="messageLine0" y2="765" x2="1045" y1="765" x1="306"/><text style="font-size: 16px; font-weight: 400;" dy="1em" class="messageText" alignment-baseline="middle" dominant-baseline="middle" text-anchor="middle" y="780" x="1196">add record income/expenses</text><line style="fill: none;" marker-end="url(#arrowhead)" stroke="none" stroke-width="2" class="messageLine0" y2="817" x2="1333" y1="817" x1="1058"/><text style="font-size: 16px; font-weight: 400;" dy="1em" class="messageText" alignment-baseline="middle" dominant-baseline="middle" text-anchor="middle" y="1064" x="1346">fill a new income or expenses</text><path style="fill: none;" marker-end="url(#arrowhead)" stroke="none" stroke-width="2" class="messageLine0" d="M 1346,1101 C 1406,1091 1406,1131 1346,1121"/><text style="font-size: 16px; font-weight: 400;" dy="1em" class="messageText" alignment-baseline="middle" dominant-baseline="middle" text-anchor="middle" y="1192" x="2034">upload banking slip</text><line style="fill: none;" marker-end="url(#arrowhead)" stroke="none" stroke-width="2" class="messageLine0" y2="1229" x2="2721" y1="1229" x1="1346"/><text style="font-size: 16px; font-weight: 400;" dy="1em" class="messageText" alignment-baseline="middle" dominant-baseline="middle" text-anchor="middle" y="1244" x="2037">fill the form with data frim banking slip</text><line style="stroke-dasharray: 3, 3; fill: none;" marker-end="url(#arrowhead)" stroke="none" stroke-width="2" class="messageLine1" y2="1281" x2="1349" y1="1281" x1="2724"/><text style="font-size: 16px; font-weight: 400;" dy="1em" class="messageText" alignment-baseline="middle" dominant-baseline="middle" text-anchor="middle" y="1296" x="1346">Validate and modify data correctness</text><path style="fill: none;" marker-end="url(#arrowhead)" stroke="none" stroke-width="2" class="messageLine0" d="M 1346,1333 C 1406,1323 1406,1363 1346,1353"/><text style="font-size: 16px; font-weight: 400;" dy="1em" class="messageText" alignment-baseline="middle" dominant-baseline="middle" text-anchor="middle" y="1418" x="1199">add new transaction successful</text><line style="stroke-dasharray: 3, 3; fill: none;" marker-end="url(#arrowhead)" stroke="none" stroke-width="2" class="messageLine1" y2="1455" x2="1061" y1="1455" x1="1336"/><text style="font-size: 16px; font-weight: 400;" dy="1em" class="messageText" alignment-baseline="middle" dominant-baseline="middle" text-anchor="middle" y="1470" x="679">back to home page</text><line style="stroke-dasharray: 3, 3; fill: none;" marker-end="url(#arrowhead)" stroke="none" stroke-width="2" class="messageLine1" y2="1507" x2="309" y1="1507" x1="1048"/><text style="font-size: 16px; font-weight: 400;" dy="1em" class="messageText" alignment-baseline="middle" dominant-baseline="middle" text-anchor="middle" y="1568" x="1094">goto to DebtList Menu</text><line style="fill: none;" marker-end="url(#arrowhead)" stroke="none" stroke-width="2" class="messageLine0" y2="1605" x2="1881" y1="1605" x1="306"/><text style="font-size: 16px; font-weight: 400;" dy="1em" class="messageText" alignment-baseline="middle" dominant-baseline="middle" text-anchor="middle" y="1620" x="2009">create a new Debt List</text><line style="fill: none;" marker-end="url(#arrowhead)" stroke="none" stroke-width="2" class="messageLine0" y2="1657" x2="2123" y1="1657" x1="1894"/><text style="font-size: 16px; font-weight: 400;" dy="1em" class="messageText" alignment-baseline="middle" dominant-baseline="middle" text-anchor="middle" y="1803" x="2136">fill new debt list fields</text><path style="fill: none;" marker-end="url(#arrowhead)" stroke="none" stroke-width="2" class="messageLine0" d="M 2136,1840 C 2196,1830 2196,1870 2136,1860"/><text style="font-size: 16px; font-weight: 400;" dy="1em" class="messageText" alignment-baseline="middle" dominant-baseline="middle" text-anchor="middle" y="1885" x="2012">add new debt successful</text><line style="stroke-dasharray: 3, 3; fill: none;" marker-end="url(#arrowhead)" stroke="none" stroke-width="2" class="messageLine1" y2="1922" x2="1897" y1="1922" x1="2126"/><text style="font-size: 16px; font-weight: 400;" dy="1em" class="messageText" alignment-baseline="middle" dominant-baseline="middle" text-anchor="middle" y="1937" x="1097">back to home page</text><line style="stroke-dasharray: 3, 3; fill: none;" marker-end="url(#arrowhead)" stroke="none" stroke-width="2" class="messageLine1" y2="1974" x2="309" y1="1974" x1="1884"/><text style="font-size: 16px; font-weight: 400;" dy="1em" class="messageText" alignment-baseline="middle" dominant-baseline="middle" text-anchor="middle" y="2035" x="676">goto Income-Expense menu</text><line style="fill: none;" marker-end="url(#arrowhead)" stroke="none" stroke-width="2" class="messageLine0" y2="2072" x2="1045" y1="2072" x1="306"/><text style="font-size: 16px; font-weight: 400;" dy="1em" class="messageText" alignment-baseline="middle" dominant-baseline="middle" text-anchor="middle" y="2087" x="1196">add record income/expenses</text><line style="fill: none;" marker-end="url(#arrowhead)" stroke="none" stroke-width="2" class="messageLine0" y2="2124" x2="1333" y1="2124" x1="1058"/><text style="font-size: 16px; font-weight: 400;" dy="1em" class="messageText" alignment-baseline="middle" dominant-baseline="middle" text-anchor="middle" y="2139" x="1346">select expense and type of debt</text><path style="fill: none;" marker-end="url(#arrowhead)" stroke="none" stroke-width="2" class="messageLine0" d="M 1346,2176 C 1406,2166 1406,2206 1346,2196"/><text style="font-size: 16px; font-weight: 400;" dy="1em" class="messageText" alignment-baseline="middle" dominant-baseline="middle" text-anchor="middle" y="2221" x="1346">select the debt</text><path style="fill: none;" marker-end="url(#arrowhead)" stroke="none" stroke-width="2" class="messageLine0" d="M 1346,2258 C 1406,2248 1406,2288 1346,2278"/><text style="font-size: 16px; font-weight: 400;" dy="1em" class="messageText" alignment-baseline="middle" dominant-baseline="middle" text-anchor="middle" y="2303" x="1199">add a new payment successful</text><line style="stroke-dasharray: 3, 3; fill: none;" marker-end="url(#arrowhead)" stroke="none" stroke-width="2" class="messageLine1" y2="2340" x2="1061" y1="2340" x1="1336"/><text style="font-size: 16px; font-weight: 400;" dy="1em" class="messageText" alignment-baseline="middle" dominant-baseline="middle" text-anchor="middle" y="2355" x="1470">examine the paid debt</text><line style="fill: none;" marker-end="url(#arrowhead)" stroke="none" stroke-width="2" class="messageLine0" y2="2392" x2="1881" y1="2392" x1="1058"/><text style="font-size: 16px; font-weight: 400;" dy="1em" class="messageText" alignment-baseline="middle" dominant-baseline="middle" text-anchor="middle" y="2407" x="1473">back to IncomeExpensesMenu</text><line style="stroke-dasharray: 3, 3; fill: none;" marker-end="url(#arrowhead)" stroke="none" stroke-width="2" class="messageLine1" y2="2444" x2="1061" y1="2444" x1="1884"/><text style="font-size: 16px; font-weight: 400;" dy="1em" class="messageText" alignment-baseline="middle" dominant-baseline="middle" text-anchor="middle" y="2459" x="679">back to home page</text><line style="stroke-dasharray: 3, 3; fill: none;" marker-end="url(#arrowhead)" stroke="none" stroke-width="2" class="messageLine1" y2="2496" x2="309" y1="2496" x1="1048"/><text style="font-size: 16px; font-weight: 400;" dy="1em" class="messageText" alignment-baseline="middle" dominant-baseline="middle" text-anchor="middle" y="2521" x="188">logout(if user desired)</text><line style="stroke-dasharray: 3, 3; fill: none;" marker-end="url(#arrowhead)" stroke="none" stroke-width="2" class="messageLine1" y2="2558" x2="79" y1="2558" x1="296"/><g name="User" class="actor-man actor-bottom"><line y2="2633" x2="75" y1="2613" x1="75" id="actor-man-torso201"/><line y2="2621" x2="93" y1="2621" x1="57" id="actor-man-arms201"/><line y2="2633" x2="75" y1="2648" x1="57"/><line y2="2648" x2="91" y1="2633" x1="75"/><circle height="65" width="150" r="15" cy="2598" cx="75"/><text style="text-anchor: middle; font-size: 16px; font-weight: 400;" class="actor" alignment-baseline="central" dominant-baseline="central" y="2655.5" x="75"><tspan dy="0" x="75">User</tspan></text></g><g name="Ocr" class="actor-man actor-bottom"><line y2="2633" x2="2729" y1="2613" x1="2729" id="actor-man-torso201"/><line y2="2621" x2="2747" y1="2621" x1="2711" id="actor-man-arms201"/><line y2="2633" x2="2729" y1="2648" x1="2711"/><line y2="2648" x2="2745" y1="2633" x1="2729"/><circle height="65" width="172" r="15" cy="2598" cx="2729"/><text style="text-anchor: middle; font-size: 16px; font-weight: 400;" class="actor" alignment-baseline="central" dominant-baseline="central" y="2655.5" x="2729"><tspan dy="0" x="2729">Slip extraction service</tspan></text></g></svg>