<svg aria-roledescription="sequence" role="graphics-document document" viewBox="-50 -10 1758.5 3964" style="max-width: 1758.5px; background-color: rgb(255, 255, 255);" xmlns:xlink="http://www.w3.org/1999/xlink" xmlns="http://www.w3.org/2000/svg" width="100%" id="mermaid-1720530212919"><rect class="rect" height="1617" width="1618.5" fill="rgb(144,255,166)" y="2231" x="30"/><rect class="rect" height="2054" width="1618.5" fill="rgb(144,193,255)" y="121" x="30"/><g><rect class="actor actor-bottom" ry="3" rx="3" name="Ocr" height="65" width="150" stroke="#666" fill="#eaeaea" y="3878" x="1344"/><text style="text-anchor: middle; font-size: 16px; font-weight: 400;" class="actor" alignment-baseline="central" dominant-baseline="central" y="3910.5" x="1419"><tspan dy="0" x="1419">OcrService</tspan></text></g><g><rect class="actor actor-bottom" ry="3" rx="3" name="Cont" height="65" width="150" stroke="#666" fill="#eaeaea" y="3878" x="938"/><text style="text-anchor: middle; font-size: 16px; font-weight: 400;" class="actor" alignment-baseline="central" dominant-baseline="central" y="3910.5" x="1013"><tspan dy="0" x="1013">OcrController</tspan></text></g><g><rect class="actor actor-bottom" ry="3" rx="3" name="Router" height="65" width="150" stroke="#666" fill="#eaeaea" y="3878" x="475"/><text style="text-anchor: middle; font-size: 16px; font-weight: 400;" class="actor" alignment-baseline="central" dominant-baseline="central" y="3910.5" x="550"><tspan dy="0" x="550">Router</tspan></text></g><g><line stroke="#999" stroke-width="0.5px" class="200" y2="3878" x2="1419" y1="5" x1="1419" id="actor115"/><g id="root-115"><rect class="actor actor-top" ry="3" rx="3" name="Ocr" height="65" width="150" stroke="#666" fill="#eaeaea" y="0" x="1344"/><text style="text-anchor: middle; font-size: 16px; font-weight: 400;" class="actor" alignment-baseline="central" dominant-baseline="central" y="32.5" x="1419"><tspan dy="0" x="1419">OcrService</tspan></text></g></g><g><line stroke="#999" stroke-width="0.5px" class="200" y2="3878" x2="1013" y1="5" x1="1013" id="actor114"/><g id="root-114"><rect class="actor actor-top" ry="3" rx="3" name="Cont" height="65" width="150" stroke="#666" fill="#eaeaea" y="0" x="938"/><text style="text-anchor: middle; font-size: 16px; font-weight: 400;" class="actor" alignment-baseline="central" dominant-baseline="central" y="32.5" x="1013"><tspan dy="0" x="1013">OcrController</tspan></text></g></g><g><line stroke="#999" stroke-width="0.5px" class="200" y2="3878" x2="550" y1="5" x1="550" id="actor113"/><g id="root-113"><rect class="actor actor-top" ry="3" rx="3" name="Router" height="65" width="150" stroke="#666" fill="#eaeaea" y="0" x="475"/><text style="text-anchor: middle; font-size: 16px; font-weight: 400;" class="actor" alignment-baseline="central" dominant-baseline="central" y="32.5" x="550"><tspan dy="0" x="550">Router</tspan></text></g></g><style>#mermaid-1720530212919{font-family:"trebuchet ms",verdana,arial,sans-serif;font-size:16px;fill:#333;}#mermaid-1720530212919 .error-icon{fill:#552222;}#mermaid-1720530212919 .error-text{fill:#552222;stroke:#552222;}#mermaid-1720530212919 .edge-thickness-normal{stroke-width:2px;}#mermaid-1720530212919 .edge-thickness-thick{stroke-width:3.5px;}#mermaid-1720530212919 .edge-pattern-solid{stroke-dasharray:0;}#mermaid-1720530212919 .edge-pattern-dashed{stroke-dasharray:3;}#mermaid-1720530212919 .edge-pattern-dotted{stroke-dasharray:2;}#mermaid-1720530212919 .marker{fill:#333333;stroke:#333333;}#mermaid-1720530212919 .marker.cross{stroke:#333333;}#mermaid-1720530212919 svg{font-family:"trebuchet ms",verdana,arial,sans-serif;font-size:16px;}#mermaid-1720530212919 .actor{stroke:hsl(259.6261682243, 59.7765363128%, 87.9019607843%);fill:#ECECFF;}#mermaid-1720530212919 text.actor&gt;tspan{fill:black;stroke:none;}#mermaid-1720530212919 .actor-line{stroke:grey;}#mermaid-1720530212919 .messageLine0{stroke-width:1.5;stroke-dasharray:none;stroke:#333;}#mermaid-1720530212919 .messageLine1{stroke-width:1.5;stroke-dasharray:2,2;stroke:#333;}#mermaid-1720530212919 #arrowhead path{fill:#333;stroke:#333;}#mermaid-1720530212919 .sequenceNumber{fill:white;}#mermaid-1720530212919 #sequencenumber{fill:#333;}#mermaid-1720530212919 #crosshead path{fill:#333;stroke:#333;}#mermaid-1720530212919 .messageText{fill:#333;stroke:none;}#mermaid-1720530212919 .labelBox{stroke:hsl(259.6261682243, 59.7765363128%, 87.9019607843%);fill:#ECECFF;}#mermaid-1720530212919 .labelText,#mermaid-1720530212919 .labelText&gt;tspan{fill:black;stroke:none;}#mermaid-1720530212919 .loopText,#mermaid-1720530212919 .loopText&gt;tspan{fill:black;stroke:none;}#mermaid-1720530212919 .loopLine{stroke-width:2px;stroke-dasharray:2,2;stroke:hsl(259.6261682243, 59.7765363128%, 87.9019607843%);fill:hsl(259.6261682243, 59.7765363128%, 87.9019607843%);}#mermaid-1720530212919 .note{stroke:#aaaa33;fill:#fff5ad;}#mermaid-1720530212919 .noteText,#mermaid-1720530212919 .noteText&gt;tspan{fill:black;stroke:none;}#mermaid-1720530212919 .activation0{fill:#f4f4f4;stroke:#666;}#mermaid-1720530212919 .activation1{fill:#f4f4f4;stroke:#666;}#mermaid-1720530212919 .activation2{fill:#f4f4f4;stroke:#666;}#mermaid-1720530212919 .actorPopupMenu{position:absolute;}#mermaid-1720530212919 .actorPopupMenuPanel{position:absolute;fill:#ECECFF;box-shadow:0px 8px 16px 0px rgba(0,0,0,0.2);filter:drop-shadow(3px 5px 2px rgb(0 0 0 / 0.4));}#mermaid-1720530212919 .actor-man line{stroke:hsl(259.6261682243, 59.7765363128%, 87.9019607843%);fill:#ECECFF;}#mermaid-1720530212919 .actor-man circle,#mermaid-1720530212919 line{stroke:hsl(259.6261682243, 59.7765363128%, 87.9019607843%);fill:#ECECFF;stroke-width:2px;}#mermaid-1720530212919 :root{--mermaid-font-family:"trebuchet ms",verdana,arial,sans-serif;}</style><g/><defs><symbol height="24" width="24" id="computer"><path d="M2 2v13h20v-13h-20zm18 11h-16v-9h16v9zm-10.228 6l.466-1h3.524l.467 1h-4.457zm14.228 3h-24l2-6h2.104l-1.33 4h18.45l-1.297-4h2.073l2 6zm-5-10h-14v-7h14v7z" transform="scale(.5)"/></symbol></defs><defs><symbol clip-rule="evenodd" fill-rule="evenodd" id="database"><path d="M12.258.001l.256.004.255.005.253.008.251.01.249.012.247.015.246.016.242.019.241.02.239.023.236.024.233.027.231.028.229.031.225.032.223.034.22.036.217.038.214.04.211.041.208.043.205.045.201.046.198.048.194.05.191.051.187.053.183.054.18.056.175.057.172.059.168.06.163.061.16.063.155.064.15.066.074.033.073.033.071.034.07.034.069.035.068.035.067.035.066.035.064.036.064.036.062.036.06.036.06.037.058.037.058.037.055.038.055.038.053.038.052.038.051.039.05.039.048.039.047.039.045.04.044.04.043.04.041.04.04.041.039.041.037.041.036.041.034.041.033.042.032.042.03.042.029.042.027.042.026.043.024.043.023.043.021.043.02.043.018.044.017.043.015.044.013.044.012.044.011.045.009.044.007.045.006.045.004.045.002.045.001.045v17l-.001.045-.002.045-.004.045-.006.045-.007.045-.009.044-.011.045-.012.044-.013.044-.015.044-.017.043-.018.044-.02.043-.021.043-.023.043-.024.043-.026.043-.027.042-.029.042-.03.042-.032.042-.033.042-.034.041-.036.041-.037.041-.039.041-.04.041-.041.04-.043.04-.044.04-.045.04-.047.039-.048.039-.05.039-.051.039-.052.038-.053.038-.055.038-.055.038-.058.037-.058.037-.06.037-.06.036-.062.036-.064.036-.064.036-.066.035-.067.035-.068.035-.069.035-.07.034-.071.034-.073.033-.074.033-.15.066-.155.064-.16.063-.163.061-.168.06-.172.059-.175.057-.18.056-.183.054-.187.053-.191.051-.194.05-.198.048-.201.046-.205.045-.208.043-.211.041-.214.04-.217.038-.22.036-.223.034-.225.032-.229.031-.231.028-.233.027-.236.024-.239.023-.241.02-.242.019-.246.016-.247.015-.249.012-.251.01-.253.008-.255.005-.256.004-.258.001-.258-.001-.256-.004-.255-.005-.253-.008-.251-.01-.249-.012-.247-.015-.245-.016-.243-.019-.241-.02-.238-.023-.236-.024-.234-.027-.231-.028-.228-.031-.226-.032-.223-.034-.22-.036-.217-.038-.214-.04-.211-.041-.208-.043-.204-.045-.201-.046-.198-.048-.195-.05-.19-.051-.187-.053-.184-.054-.179-.056-.176-.057-.172-.059-.167-.06-.164-.061-.159-.063-.155-.064-.151-.066-.074-.033-.072-.033-.072-.034-.07-.034-.069-.035-.068-.035-.067-.035-.066-.035-.064-.036-.063-.036-.062-.036-.061-.036-.06-.037-.058-.037-.057-.037-.056-.038-.055-.038-.053-.038-.052-.038-.051-.039-.049-.039-.049-.039-.046-.039-.046-.04-.044-.04-.043-.04-.041-.04-.04-.041-.039-.041-.037-.041-.036-.041-.034-.041-.033-.042-.032-.042-.03-.042-.029-.042-.027-.042-.026-.043-.024-.043-.023-.043-.021-.043-.02-.043-.018-.044-.017-.043-.015-.044-.013-.044-.012-.044-.011-.045-.009-.044-.007-.045-.006-.045-.004-.045-.002-.045-.001-.045v-17l.001-.045.002-.045.004-.045.006-.045.007-.045.009-.044.011-.045.012-.044.013-.044.015-.044.017-.043.018-.044.02-.043.021-.043.023-.043.024-.043.026-.043.027-.042.029-.042.03-.042.032-.042.033-.042.034-.041.036-.041.037-.041.039-.041.04-.041.041-.04.043-.04.044-.04.046-.04.046-.039.049-.039.049-.039.051-.039.052-.038.053-.038.055-.038.056-.038.057-.037.058-.037.06-.037.061-.036.062-.036.063-.036.064-.036.066-.035.067-.035.068-.035.069-.035.07-.034.072-.034.072-.033.074-.033.151-.066.155-.064.159-.063.164-.061.167-.06.172-.059.176-.057.179-.056.184-.054.187-.053.19-.051.195-.05.198-.048.201-.046.204-.045.208-.043.211-.041.214-.04.217-.038.22-.036.223-.034.226-.032.228-.031.231-.028.234-.027.236-.024.238-.023.241-.02.243-.019.245-.016.247-.015.249-.012.251-.01.253-.008.255-.005.256-.004.258-.001.258.001zm-9.258 20.499v.01l.001.021.003.021.004.022.005.021.006.022.007.022.009.023.01.022.011.023.012.023.013.023.015.023.016.024.017.023.018.024.019.024.021.024.022.025.023.024.024.025.052.049.056.05.061.051.066.051.07.051.075.051.079.052.084.052.088.052.092.052.097.052.102.051.105.052.11.052.114.051.119.051.123.051.127.05.131.05.135.05.139.048.144.049.147.047.152.047.155.047.16.045.163.045.167.043.171.043.176.041.178.041.183.039.187.039.19.037.194.035.197.035.202.033.204.031.209.03.212.029.216.027.219.025.222.024.226.021.23.02.233.018.236.016.24.015.243.012.246.01.249.008.253.005.256.004.259.001.26-.001.257-.004.254-.005.25-.008.247-.011.244-.012.241-.014.237-.016.233-.018.231-.021.226-.021.224-.024.22-.026.216-.027.212-.028.21-.031.205-.031.202-.034.198-.034.194-.036.191-.037.187-.039.183-.04.179-.04.175-.042.172-.043.168-.044.163-.045.16-.046.155-.046.152-.047.148-.048.143-.049.139-.049.136-.05.131-.05.126-.05.123-.051.118-.052.114-.051.11-.052.106-.052.101-.052.096-.052.092-.052.088-.053.083-.051.079-.052.074-.052.07-.051.065-.051.06-.051.056-.05.051-.05.023-.024.023-.025.021-.024.02-.024.019-.024.018-.024.017-.024.015-.023.014-.024.013-.023.012-.023.01-.023.01-.022.008-.022.006-.022.006-.022.004-.022.004-.021.001-.021.001-.021v-4.127l-.077.055-.08.053-.083.054-.085.053-.087.052-.09.052-.093.051-.095.05-.097.05-.1.049-.102.049-.105.048-.106.047-.109.047-.111.046-.114.045-.115.045-.118.044-.12.043-.122.042-.124.042-.126.041-.128.04-.13.04-.132.038-.134.038-.135.037-.138.037-.139.035-.142.035-.143.034-.144.033-.147.032-.148.031-.15.03-.151.03-.153.029-.154.027-.156.027-.158.026-.159.025-.161.024-.162.023-.163.022-.165.021-.166.02-.167.019-.169.018-.169.017-.171.016-.173.015-.173.014-.175.013-.175.012-.177.011-.178.01-.179.008-.179.008-.181.006-.182.005-.182.004-.184.003-.184.002h-.37l-.184-.002-.184-.003-.182-.004-.182-.005-.181-.006-.179-.008-.179-.008-.178-.01-.176-.011-.176-.012-.175-.013-.173-.014-.172-.015-.171-.016-.17-.017-.169-.018-.167-.019-.166-.02-.165-.021-.163-.022-.162-.023-.161-.024-.159-.025-.157-.026-.156-.027-.155-.027-.153-.029-.151-.03-.15-.03-.148-.031-.146-.032-.145-.033-.143-.034-.141-.035-.14-.035-.137-.037-.136-.037-.134-.038-.132-.038-.13-.04-.128-.04-.126-.041-.124-.042-.122-.042-.12-.044-.117-.043-.116-.045-.113-.045-.112-.046-.109-.047-.106-.047-.105-.048-.102-.049-.1-.049-.097-.05-.095-.05-.093-.052-.09-.051-.087-.052-.085-.053-.083-.054-.08-.054-.077-.054v4.127zm0-5.654v.011l.001.021.003.021.004.021.005.022.006.022.007.022.009.022.01.022.011.023.012.023.013.023.015.024.016.023.017.024.018.024.019.024.021.024.022.024.023.025.024.024.052.05.056.05.061.05.066.051.07.051.075.052.079.051.084.052.088.052.092.052.097.052.102.052.105.052.11.051.114.051.119.052.123.05.127.051.131.05.135.049.139.049.144.048.147.048.152.047.155.046.16.045.163.045.167.044.171.042.176.042.178.04.183.04.187.038.19.037.194.036.197.034.202.033.204.032.209.03.212.028.216.027.219.025.222.024.226.022.23.02.233.018.236.016.24.014.243.012.246.01.249.008.253.006.256.003.259.001.26-.001.257-.003.254-.006.25-.008.247-.01.244-.012.241-.015.237-.016.233-.018.231-.02.226-.022.224-.024.22-.025.216-.027.212-.029.21-.03.205-.032.202-.033.198-.035.194-.036.191-.037.187-.039.183-.039.179-.041.175-.042.172-.043.168-.044.163-.045.16-.045.155-.047.152-.047.148-.048.143-.048.139-.05.136-.049.131-.05.126-.051.123-.051.118-.051.114-.052.11-.052.106-.052.101-.052.096-.052.092-.052.088-.052.083-.052.079-.052.074-.051.07-.052.065-.051.06-.05.056-.051.051-.049.023-.025.023-.024.021-.025.02-.024.019-.024.018-.024.017-.024.015-.023.014-.023.013-.024.012-.022.01-.023.01-.023.008-.022.006-.022.006-.022.004-.021.004-.022.001-.021.001-.021v-4.139l-.077.054-.08.054-.083.054-.085.052-.087.053-.09.051-.093.051-.095.051-.097.05-.1.049-.102.049-.105.048-.106.047-.109.047-.111.046-.114.045-.115.044-.118.044-.12.044-.122.042-.124.042-.126.041-.128.04-.13.039-.132.039-.134.038-.135.037-.138.036-.139.036-.142.035-.143.033-.144.033-.147.033-.148.031-.15.03-.151.03-.153.028-.154.028-.156.027-.158.026-.159.025-.161.024-.162.023-.163.022-.165.021-.166.02-.167.019-.169.018-.169.017-.171.016-.173.015-.173.014-.175.013-.175.012-.177.011-.178.009-.179.009-.179.007-.181.007-.182.005-.182.004-.184.003-.184.002h-.37l-.184-.002-.184-.003-.182-.004-.182-.005-.181-.007-.179-.007-.179-.009-.178-.009-.176-.011-.176-.012-.175-.013-.173-.014-.172-.015-.171-.016-.17-.017-.169-.018-.167-.019-.166-.02-.165-.021-.163-.022-.162-.023-.161-.024-.159-.025-.157-.026-.156-.027-.155-.028-.153-.028-.151-.03-.15-.03-.148-.031-.146-.033-.145-.033-.143-.033-.141-.035-.14-.036-.137-.036-.136-.037-.134-.038-.132-.039-.13-.039-.128-.04-.126-.041-.124-.042-.122-.043-.12-.043-.117-.044-.116-.044-.113-.046-.112-.046-.109-.046-.106-.047-.105-.048-.102-.049-.1-.049-.097-.05-.095-.051-.093-.051-.09-.051-.087-.053-.085-.052-.083-.054-.08-.054-.077-.054v4.139zm0-5.666v.011l.001.02.003.022.004.021.005.022.006.021.007.022.009.023.01.022.011.023.012.023.013.023.015.023.016.024.017.024.018.023.019.024.021.025.022.024.023.024.024.025.052.05.056.05.061.05.066.051.07.051.075.052.079.051.084.052.088.052.092.052.097.052.102.052.105.051.11.052.114.051.119.051.123.051.127.05.131.05.135.05.139.049.144.048.147.048.152.047.155.046.16.045.163.045.167.043.171.043.176.042.178.04.183.04.187.038.19.037.194.036.197.034.202.033.204.032.209.03.212.028.216.027.219.025.222.024.226.021.23.02.233.018.236.017.24.014.243.012.246.01.249.008.253.006.256.003.259.001.26-.001.257-.003.254-.006.25-.008.247-.01.244-.013.241-.014.237-.016.233-.018.231-.02.226-.022.224-.024.22-.025.216-.027.212-.029.21-.03.205-.032.202-.033.198-.035.194-.036.191-.037.187-.039.183-.039.179-.041.175-.042.172-.043.168-.044.163-.045.16-.045.155-.047.152-.047.148-.048.143-.049.139-.049.136-.049.131-.051.126-.05.123-.051.118-.052.114-.051.11-.052.106-.052.101-.052.096-.052.092-.052.088-.052.083-.052.079-.052.074-.052.07-.051.065-.051.06-.051.056-.05.051-.049.023-.025.023-.025.021-.024.02-.024.019-.024.018-.024.017-.024.015-.023.014-.024.013-.023.012-.023.01-.022.01-.023.008-.022.006-.022.006-.022.004-.022.004-.021.001-.021.001-.021v-4.153l-.077.054-.08.054-.083.053-.085.053-.087.053-.09.051-.093.051-.095.051-.097.05-.1.049-.102.048-.105.048-.106.048-.109.046-.111.046-.114.046-.115.044-.118.044-.12.043-.122.043-.124.042-.126.041-.128.04-.13.039-.132.039-.134.038-.135.037-.138.036-.139.036-.142.034-.143.034-.144.033-.147.032-.148.032-.15.03-.151.03-.153.028-.154.028-.156.027-.158.026-.159.024-.161.024-.162.023-.163.023-.165.021-.166.02-.167.019-.169.018-.169.017-.171.016-.173.015-.173.014-.175.013-.175.012-.177.01-.178.01-.179.009-.179.007-.181.006-.182.006-.182.004-.184.003-.184.001-.185.001-.185-.001-.184-.001-.184-.003-.182-.004-.182-.006-.181-.006-.179-.007-.179-.009-.178-.01-.176-.01-.176-.012-.175-.013-.173-.014-.172-.015-.171-.016-.17-.017-.169-.018-.167-.019-.166-.02-.165-.021-.163-.023-.162-.023-.161-.024-.159-.024-.157-.026-.156-.027-.155-.028-.153-.028-.151-.03-.15-.03-.148-.032-.146-.032-.145-.033-.143-.034-.141-.034-.14-.036-.137-.036-.136-.037-.134-.038-.132-.039-.13-.039-.128-.041-.126-.041-.124-.041-.122-.043-.12-.043-.117-.044-.116-.044-.113-.046-.112-.046-.109-.046-.106-.048-.105-.048-.102-.048-.1-.05-.097-.049-.095-.051-.093-.051-.09-.052-.087-.052-.085-.053-.083-.053-.08-.054-.077-.054v4.153zm8.74-8.179l-.257.004-.254.005-.25.008-.247.011-.244.012-.241.014-.237.016-.233.018-.231.021-.226.022-.224.023-.22.026-.216.027-.212.028-.21.031-.205.032-.202.033-.198.034-.194.036-.191.038-.187.038-.183.04-.179.041-.175.042-.172.043-.168.043-.163.045-.16.046-.155.046-.152.048-.148.048-.143.048-.139.049-.136.05-.131.05-.126.051-.123.051-.118.051-.114.052-.11.052-.106.052-.101.052-.096.052-.092.052-.088.052-.083.052-.079.052-.074.051-.07.052-.065.051-.06.05-.056.05-.051.05-.023.025-.023.024-.021.024-.02.025-.019.024-.018.024-.017.023-.015.024-.014.023-.013.023-.012.023-.01.023-.01.022-.008.022-.006.023-.006.021-.004.022-.004.021-.001.021-.001.021.001.021.001.021.004.021.004.022.006.021.006.023.008.022.01.022.01.023.012.023.013.023.014.023.015.024.017.023.018.024.019.024.02.025.021.024.023.024.023.025.051.05.056.05.06.05.065.051.07.052.074.051.079.052.083.052.088.052.092.052.096.052.101.052.106.052.11.052.114.052.118.051.123.051.126.051.131.05.136.05.139.049.143.048.148.048.152.048.155.046.16.046.163.045.168.043.172.043.175.042.179.041.183.04.187.038.191.038.194.036.198.034.202.033.205.032.21.031.212.028.216.027.22.026.224.023.226.022.231.021.233.018.237.016.241.014.244.012.247.011.25.008.254.005.257.004.26.001.26-.001.257-.004.254-.005.25-.008.247-.011.244-.012.241-.014.237-.016.233-.018.231-.021.226-.022.224-.023.22-.026.216-.027.212-.028.21-.031.205-.032.202-.033.198-.034.194-.036.191-.038.187-.038.183-.04.179-.041.175-.042.172-.043.168-.043.163-.045.16-.046.155-.046.152-.048.148-.048.143-.048.139-.049.136-.05.131-.05.126-.051.123-.051.118-.051.114-.052.11-.052.106-.052.101-.052.096-.052.092-.052.088-.052.083-.052.079-.052.074-.051.07-.052.065-.051.06-.05.056-.05.051-.05.023-.025.023-.024.021-.024.02-.025.019-.024.018-.024.017-.023.015-.024.014-.023.013-.023.012-.023.01-.023.01-.022.008-.022.006-.023.006-.021.004-.022.004-.021.001-.021.001-.021-.001-.021-.001-.021-.004-.021-.004-.022-.006-.021-.006-.023-.008-.022-.01-.022-.01-.023-.012-.023-.013-.023-.014-.023-.015-.024-.017-.023-.018-.024-.019-.024-.02-.025-.021-.024-.023-.024-.023-.025-.051-.05-.056-.05-.06-.05-.065-.051-.07-.052-.074-.051-.079-.052-.083-.052-.088-.052-.092-.052-.096-.052-.101-.052-.106-.052-.11-.052-.114-.052-.118-.051-.123-.051-.126-.051-.131-.05-.136-.05-.139-.049-.143-.048-.148-.048-.152-.048-.155-.046-.16-.046-.163-.045-.168-.043-.172-.043-.175-.042-.179-.041-.183-.04-.187-.038-.191-.038-.194-.036-.198-.034-.202-.033-.205-.032-.21-.031-.212-.028-.216-.027-.22-.026-.224-.023-.226-.022-.231-.021-.233-.018-.237-.016-.241-.014-.244-.012-.247-.011-.25-.008-.254-.005-.257-.004-.26-.001-.26.001z" transform="scale(.5)"/></symbol></defs><defs><symbol height="24" width="24" id="clock"><path d="M12 2c5.514 0 10 4.486 10 10s-4.486 10-10 10-10-4.486-10-10 4.486-10 10-10zm0-2c-6.627 0-12 5.373-12 12s5.373 12 12 12 12-5.373 12-12-5.373-12-12-12zm5.848 12.459c.202.038.202.333.001.372-1.907.361-6.045 1.111-6.547 1.111-.719 0-1.301-.582-1.301-1.301 0-.512.77-5.447 1.125-7.445.034-.192.312-.181.343.014l.985 6.238 5.394 1.011z" transform="scale(.5)"/></symbol></defs><defs><marker orient="auto" markerHeight="12" markerWidth="12" markerUnits="userSpaceOnUse" refY="5" refX="7.9" id="arrowhead"><path d="M 0 0 L 10 5 L 0 10 z"/></marker></defs><defs><marker refY="4.5" refX="4" orient="auto" markerHeight="8" markerWidth="15" id="crosshead"><path style="stroke-dasharray: 0, 0;" d="M 1,2 L 6,7 M 6,2 L 1,7" stroke-width="1pt" stroke="#000000" fill="none"/></marker></defs><defs><marker orient="auto" markerHeight="28" markerWidth="20" refY="7" refX="15.5" id="filled-head"><path d="M 18,7 L9,13 L14,7 L9,1 Z"/></marker></defs><defs><marker orient="auto" markerHeight="40" markerWidth="60" refY="15" refX="15" id="sequencenumber"><circle r="6" cy="15" cx="15"/></marker></defs><g><rect class="note" ry="0" rx="0" height="58" width="369" stroke="#666" fill="#EDF2AE" y="141" x="100"/><text style="font-size: 16px; font-weight: 400;" dy="1em" class="noteText" alignment-baseline="middle" dominant-baseline="middle" text-anchor="middle" y="146" x="285"><tspan x="285">with body of image attached and</tspan></text><text style="font-size: 16px; font-weight: 400;" dy="1em" class="noteText" alignment-baseline="middle" dominant-baseline="middle" text-anchor="middle" y="165" x="285"><tspan x="285">coordinate of 3 rectangles(left, top, width, height)</tspan></text></g><g><rect class="note" ry="0" rx="0" height="39" width="513" stroke="#666" fill="#EDF2AE" y="261" x="525"/><text style="font-size: 16px; font-weight: 400;" dy="1em" class="noteText" alignment-baseline="middle" dominant-baseline="middle" text-anchor="middle" y="266" x="782"><tspan x="782">array of 3 rectangle coordinate</tspan></text></g><g><rect class="note" ry="0" rx="0" height="39" width="525" stroke="#666" fill="#EDF2AE" y="563" x="50"/><text style="font-size: 16px; font-weight: 400;" dy="1em" class="noteText" alignment-baseline="middle" dominant-baseline="middle" text-anchor="middle" y="568" x="313"><tspan x="313">JSON Response: {status_code, message, data(if any)}</tspan></text></g><g><line class="loopLine" y2="465" x2="1024" y1="465" x1="40"/><line class="loopLine" y2="664" x2="1024" y1="465" x1="1024"/><line class="loopLine" y2="664" x2="1024" y1="664" x1="40"/><line class="loopLine" y2="664" x2="40" y1="465" x1="40"/><polygon class="labelBox" points="40,465 90,465 90,478 81.6,485 40,485"/><text style="font-size: 16px; font-weight: 400;" class="labelText" alignment-baseline="middle" dominant-baseline="middle" text-anchor="middle" y="478" x="65">opt</text><text style="font-size: 16px; font-weight: 400;" class="loopText" text-anchor="middle" y="483" x="557"><tspan x="557">[image not found]</tspan></text></g><g><rect class="note" ry="0" rx="0" height="39" width="525" stroke="#666" fill="#EDF2AE" y="772" x="50"/><text style="font-size: 16px; font-weight: 400;" dy="1em" class="noteText" alignment-baseline="middle" dominant-baseline="middle" text-anchor="middle" y="777" x="313"><tspan x="313">JSON Response: {status_code, message, data(if any)}</tspan></text></g><g><line class="loopLine" y2="674" x2="1024" y1="674" x1="40"/><line class="loopLine" y2="873" x2="1024" y1="674" x1="1024"/><line class="loopLine" y2="873" x2="1024" y1="873" x1="40"/><line class="loopLine" y2="873" x2="40" y1="674" x1="40"/><polygon class="labelBox" points="40,674 90,674 90,687 81.6,694 40,694"/><text style="font-size: 16px; font-weight: 400;" class="labelText" alignment-baseline="middle" dominant-baseline="middle" text-anchor="middle" y="687" x="65">opt</text><text style="font-size: 16px; font-weight: 400;" class="loopText" text-anchor="middle" y="692" x="557"><tspan x="557">[invalid image format]</tspan></text></g><g><rect class="note" ry="0" rx="0" height="39" width="525" stroke="#666" fill="#EDF2AE" y="981" x="50"/><text style="font-size: 16px; font-weight: 400;" dy="1em" class="noteText" alignment-baseline="middle" dominant-baseline="middle" text-anchor="middle" y="986" x="313"><tspan x="313">JSON Response: {status_code, message, data(if any)}</tspan></text></g><g><line class="loopLine" y2="883" x2="1024" y1="883" x1="40"/><line class="loopLine" y2="1082" x2="1024" y1="883" x1="1024"/><line class="loopLine" y2="1082" x2="1024" y1="1082" x1="40"/><line class="loopLine" y2="1082" x2="40" y1="883" x1="40"/><polygon class="labelBox" points="40,883 90,883 90,896 81.6,903 40,903"/><text style="font-size: 16px; font-weight: 400;" class="labelText" alignment-baseline="middle" dominant-baseline="middle" text-anchor="middle" y="896" x="65">opt</text><text style="font-size: 16px; font-weight: 400;" class="loopText" text-anchor="middle" y="901" x="557"><tspan x="557">[insufficient rectangle]</tspan></text></g><g><rect class="note" ry="0" rx="0" height="39" width="525" stroke="#666" fill="#EDF2AE" y="1190" x="50"/><text style="font-size: 16px; font-weight: 400;" dy="1em" class="noteText" alignment-baseline="middle" dominant-baseline="middle" text-anchor="middle" y="1195" x="313"><tspan x="313">JSON Response: {status_code, message, data(if any)}</tspan></text></g><g><line class="loopLine" y2="1092" x2="1024" y1="1092" x1="40"/><line class="loopLine" y2="1291" x2="1024" y1="1092" x1="1024"/><line class="loopLine" y2="1291" x2="1024" y1="1291" x1="40"/><line class="loopLine" y2="1291" x2="40" y1="1092" x1="40"/><polygon class="labelBox" points="40,1092 90,1092 90,1105 81.6,1112 40,1112"/><text style="font-size: 16px; font-weight: 400;" class="labelText" alignment-baseline="middle" dominant-baseline="middle" text-anchor="middle" y="1105" x="65">opt</text><text style="font-size: 16px; font-weight: 400;" class="loopText" text-anchor="middle" y="1110" x="557"><tspan x="557">[rectangle format invalid]</tspan></text></g><g><rect class="note" ry="0" rx="0" height="58" width="439" stroke="#666" fill="#EDF2AE" y="1435" x="1199.5"/><text style="font-size: 16px; font-weight: 400;" dy="1em" class="noteText" alignment-baseline="middle" dominant-baseline="middle" text-anchor="middle" y="1440" x="1419"><tspan x="1419">process_text(textToProcess, whatToGet)</tspan></text><text style="font-size: 16px; font-weight: 400;" dy="1em" class="noteText" alignment-baseline="middle" dominant-baseline="middle" text-anchor="middle" y="1459" x="1419"><tspan x="1419">do RegEx to get whatToGet {"Symbol", "amont", "unitPrice"}</tspan></text></g><g><rect class="note" ry="0" rx="0" height="39" width="525" stroke="#666" fill="#EDF2AE" y="1817" x="50"/><text style="font-size: 16px; font-weight: 400;" dy="1em" class="noteText" alignment-baseline="middle" dominant-baseline="middle" text-anchor="middle" y="1822" x="313"><tspan x="313">JSON Response: {status_code, message, data(if any)}</tspan></text></g><g><line class="loopLine" y2="1585" x2="1430" y1="1585" x1="40"/><line class="loopLine" y2="1918" x2="1430" y1="1585" x1="1430"/><line class="loopLine" y2="1918" x2="1430" y1="1918" x1="40"/><line class="loopLine" y2="1918" x2="40" y1="1585" x1="40"/><polygon class="labelBox" points="40,1585 90,1585 90,1598 81.6,1605 40,1605"/><text style="font-size: 16px; font-weight: 400;" class="labelText" alignment-baseline="middle" dominant-baseline="middle" text-anchor="middle" y="1598" x="65">opt</text><text style="font-size: 16px; font-weight: 400;" class="loopText" text-anchor="middle" y="1603" x="760"><tspan x="760">[extract_stock Failed]</tspan></text></g><g><rect class="note" ry="0" rx="0" height="39" width="525" stroke="#666" fill="#EDF2AE" y="2074" x="50"/><text style="font-size: 16px; font-weight: 400;" dy="1em" class="noteText" alignment-baseline="middle" dominant-baseline="middle" text-anchor="middle" y="2079" x="313"><tspan x="313">JSON Response: {status_code, message, data(if any)}</tspan></text></g><g><rect class="note" ry="0" rx="0" height="39" width="191" stroke="#666" fill="#EDF2AE" y="2251" x="100"/><text style="font-size: 16px; font-weight: 400;" dy="1em" class="noteText" alignment-baseline="middle" dominant-baseline="middle" text-anchor="middle" y="2256" x="196"><tspan x="196">with body of screenshot</tspan></text></g><g><rect class="note" ry="0" rx="0" height="39" width="525" stroke="#666" fill="#EDF2AE" y="2605" x="50"/><text style="font-size: 16px; font-weight: 400;" dy="1em" class="noteText" alignment-baseline="middle" dominant-baseline="middle" text-anchor="middle" y="2610" x="313"><tspan x="313">JSON Response: {status_code, message, data(if any)}</tspan></text></g><g><line class="loopLine" y2="2507" x2="1024" y1="2507" x1="40"/><line class="loopLine" y2="2706" x2="1024" y1="2507" x1="1024"/><line class="loopLine" y2="2706" x2="1024" y1="2706" x1="40"/><line class="loopLine" y2="2706" x2="40" y1="2507" x1="40"/><polygon class="labelBox" points="40,2507 90,2507 90,2520 81.6,2527 40,2527"/><text style="font-size: 16px; font-weight: 400;" class="labelText" alignment-baseline="middle" dominant-baseline="middle" text-anchor="middle" y="2520" x="65">opt</text><text style="font-size: 16px; font-weight: 400;" class="loopText" text-anchor="middle" y="2525" x="557"><tspan x="557">[image not found]</tspan></text></g><g><rect class="note" ry="0" rx="0" height="39" width="525" stroke="#666" fill="#EDF2AE" y="2814" x="50"/><text style="font-size: 16px; font-weight: 400;" dy="1em" class="noteText" alignment-baseline="middle" dominant-baseline="middle" text-anchor="middle" y="2819" x="313"><tspan x="313">JSON Response: {status_code, message, data(if any)}</tspan></text></g><g><line class="loopLine" y2="2716" x2="1024" y1="2716" x1="40"/><line class="loopLine" y2="2915" x2="1024" y1="2716" x1="1024"/><line class="loopLine" y2="2915" x2="1024" y1="2915" x1="40"/><line class="loopLine" y2="2915" x2="40" y1="2716" x1="40"/><polygon class="labelBox" points="40,2716 90,2716 90,2729 81.6,2736 40,2736"/><text style="font-size: 16px; font-weight: 400;" class="labelText" alignment-baseline="middle" dominant-baseline="middle" text-anchor="middle" y="2729" x="65">opt</text><text style="font-size: 16px; font-weight: 400;" class="loopText" text-anchor="middle" y="2734" x="557"><tspan x="557">[invalid image format]</tspan></text></g><g><rect class="note" ry="0" rx="0" height="39" width="456" stroke="#666" fill="#EDF2AE" y="2925" x="988"/><text style="font-size: 16px; font-weight: 400;" dy="1em" class="noteText" alignment-baseline="middle" dominant-baseline="middle" text-anchor="middle" y="2930" x="1216"><tspan x="1216">use image width in percent to specify the rectangle</tspan></text></g><g><rect class="note" ry="0" rx="0" height="58" width="439" stroke="#666" fill="#EDF2AE" y="3108" x="1199.5"/><text style="font-size: 16px; font-weight: 400;" dy="1em" class="noteText" alignment-baseline="middle" dominant-baseline="middle" text-anchor="middle" y="3113" x="1419"><tspan x="1419">process_text(textToProcess, whatToGet)</tspan></text><text style="font-size: 16px; font-weight: 400;" dy="1em" class="noteText" alignment-baseline="middle" dominant-baseline="middle" text-anchor="middle" y="3132" x="1419"><tspan x="1419">do RegEx to get whatToGet {"Symbol", "amont", "unitPrice"}</tspan></text></g><g><rect class="note" ry="0" rx="0" height="39" width="525" stroke="#666" fill="#EDF2AE" y="3490" x="50"/><text style="font-size: 16px; font-weight: 400;" dy="1em" class="noteText" alignment-baseline="middle" dominant-baseline="middle" text-anchor="middle" y="3495" x="313"><tspan x="313">JSON Response: {status_code, message, data(if any)}</tspan></text></g><g><line class="loopLine" y2="3258" x2="1430" y1="3258" x1="40"/><line class="loopLine" y2="3591" x2="1430" y1="3258" x1="1430"/><line class="loopLine" y2="3591" x2="1430" y1="3591" x1="40"/><line class="loopLine" y2="3591" x2="40" y1="3258" x1="40"/><polygon class="labelBox" points="40,3258 90,3258 90,3271 81.6,3278 40,3278"/><text style="font-size: 16px; font-weight: 400;" class="labelText" alignment-baseline="middle" dominant-baseline="middle" text-anchor="middle" y="3271" x="65">opt</text><text style="font-size: 16px; font-weight: 400;" class="loopText" text-anchor="middle" y="3276" x="760"><tspan x="760">[extract_stock Failed]</tspan></text></g><g><rect class="note" ry="0" rx="0" height="39" width="525" stroke="#666" fill="#EDF2AE" y="3747" x="50"/><text style="font-size: 16px; font-weight: 400;" dy="1em" class="noteText" alignment-baseline="middle" dominant-baseline="middle" text-anchor="middle" y="3752" x="313"><tspan x="313">JSON Response: {status_code, message, data(if any)}</tspan></text></g><g><line class="loopLine" y2="75" x2="1658.5" y1="75" x1="20"/><line class="loopLine" y2="3858" x2="1658.5" y1="75" x1="1658.5"/><line class="loopLine" y2="3858" x2="1658.5" y1="3858" x1="20"/><line class="loopLine" y2="3858" x2="20" y1="75" x1="20"/><line style="stroke-dasharray: 3, 3;" class="loopLine" y2="2190" x2="1658.5" y1="2190" x1="20"/><polygon class="labelBox" points="20,75 70,75 70,88 61.6,95 20,95"/><text style="font-size: 16px; font-weight: 400;" class="labelText" alignment-baseline="middle" dominant-baseline="middle" text-anchor="middle" y="88" x="45">alt</text><text style="font-size: 16px; font-weight: 400;" class="loopText" text-anchor="middle" y="93" x="864.25"><tspan x="864.25">[use coordinate of 3 rectangles]</tspan></text><text style="font-size: 16px; font-weight: 400;" class="loopText" text-anchor="middle" y="2208" x="839.25">[use a screenshot]</text></g><line stroke="#999" stroke-width="0.5px" class="200" y2="3878" x2="75" y1="80" x1="75" id="actor112"/><g name="Client" class="actor-man actor-top"><line y2="45" x2="75" y1="25" x1="75" id="actor-man-torso112"/><line y2="33" x2="93" y1="33" x1="57" id="actor-man-arms112"/><line y2="45" x2="75" y1="60" x1="57"/><line y2="60" x2="91" y1="45" x1="75"/><circle height="65" width="150" r="15" cy="10" cx="75"/><text style="text-anchor: middle; font-size: 16px; font-weight: 400;" class="actor" alignment-baseline="central" dominant-baseline="central" y="67.5" x="75"><tspan dy="0" x="75">Client</tspan></text></g><text style="font-size: 16px; font-weight: 400;" dy="1em" class="messageText" alignment-baseline="middle" dominant-baseline="middle" text-anchor="middle" y="214" x="311">POST ocr/rectangles</text><line style="fill: none;" marker-end="url(#arrowhead)" stroke="none" stroke-width="2" class="messageLine0" y2="251" x2="546" y1="251" x1="76"/><text style="font-size: 16px; font-weight: 400;" dy="1em" class="messageText" alignment-baseline="middle" dominant-baseline="middle" text-anchor="middle" y="315" x="780">get_stocks_data(image, rectangles)</text><line style="fill: none;" marker-end="url(#arrowhead)" stroke="none" stroke-width="2" class="messageLine0" y2="352" x2="1009" y1="352" x1="551"/><text style="font-size: 16px; font-weight: 400;" dy="1em" class="messageText" alignment-baseline="middle" dominant-baseline="middle" text-anchor="middle" y="367" x="1014">verify if each rectangle are specified in correct format and</text><text style="font-size: 16px; font-weight: 400;" dy="1em" class="messageText" alignment-baseline="middle" dominant-baseline="middle" text-anchor="middle" y="386" x="1014">have 3 rectangles</text><path style="fill: none;" marker-end="url(#arrowhead)" stroke="none" stroke-width="2" class="messageLine0" d="M 1014,425 C 1074,415 1074,455 1014,445"/><text style="font-size: 16px; font-weight: 400;" dy="1em" class="messageText" alignment-baseline="middle" dominant-baseline="middle" text-anchor="middle" y="516" x="783">throw the error "image not found"</text><line style="stroke-dasharray: 3, 3; fill: none;" marker-end="url(#arrowhead)" stroke="none" stroke-width="2" class="messageLine1" y2="553" x2="554" y1="553" x1="1012"/><text style="font-size: 16px; font-weight: 400;" dy="1em" class="messageText" alignment-baseline="middle" dominant-baseline="middle" text-anchor="middle" y="617" x="314">400, "image is required"</text><line style="stroke-dasharray: 3, 3; fill: none;" marker-end="url(#arrowhead)" stroke="none" stroke-width="2" class="messageLine1" y2="654" x2="79" y1="654" x1="549"/><text style="font-size: 16px; font-weight: 400;" dy="1em" class="messageText" alignment-baseline="middle" dominant-baseline="middle" text-anchor="middle" y="725" x="783">throw the error "invalid image format"</text><line style="stroke-dasharray: 3, 3; fill: none;" marker-end="url(#arrowhead)" stroke="none" stroke-width="2" class="messageLine1" y2="762" x2="554" y1="762" x1="1012"/><text style="font-size: 16px; font-weight: 400;" dy="1em" class="messageText" alignment-baseline="middle" dominant-baseline="middle" text-anchor="middle" y="826" x="314">405, "invalid image format"</text><line style="stroke-dasharray: 3, 3; fill: none;" marker-end="url(#arrowhead)" stroke="none" stroke-width="2" class="messageLine1" y2="863" x2="79" y1="863" x1="549"/><text style="font-size: 16px; font-weight: 400;" dy="1em" class="messageText" alignment-baseline="middle" dominant-baseline="middle" text-anchor="middle" y="934" x="783">throw the error "require 3 rectangles"</text><line style="stroke-dasharray: 3, 3; fill: none;" marker-end="url(#arrowhead)" stroke="none" stroke-width="2" class="messageLine1" y2="971" x2="554" y1="971" x1="1012"/><text style="font-size: 16px; font-weight: 400;" dy="1em" class="messageText" alignment-baseline="middle" dominant-baseline="middle" text-anchor="middle" y="1035" x="314">400, "require 3 rectangles"</text><line style="stroke-dasharray: 3, 3; fill: none;" marker-end="url(#arrowhead)" stroke="none" stroke-width="2" class="messageLine1" y2="1072" x2="79" y1="1072" x1="549"/><text style="font-size: 16px; font-weight: 400;" dy="1em" class="messageText" alignment-baseline="middle" dominant-baseline="middle" text-anchor="middle" y="1143" x="783">throw the error "rectangle format invalid "</text><line style="stroke-dasharray: 3, 3; fill: none;" marker-end="url(#arrowhead)" stroke="none" stroke-width="2" class="messageLine1" y2="1180" x2="554" y1="1180" x1="1012"/><text style="font-size: 16px; font-weight: 400;" dy="1em" class="messageText" alignment-baseline="middle" dominant-baseline="middle" text-anchor="middle" y="1244" x="314">400, "rectangle format invalid"</text><line style="stroke-dasharray: 3, 3; fill: none;" marker-end="url(#arrowhead)" stroke="none" stroke-width="2" class="messageLine1" y2="1281" x2="79" y1="1281" x1="549"/><text style="font-size: 16px; font-weight: 400;" dy="1em" class="messageText" alignment-baseline="middle" dominant-baseline="middle" text-anchor="middle" y="1306" x="1215">extract_stock(image, rectArr)</text><line style="fill: none;" marker-end="url(#arrowhead)" stroke="none" stroke-width="2" class="messageLine0" y2="1343" x2="1415" y1="1343" x1="1014"/><text style="font-size: 16px; font-weight: 400;" dy="1em" class="messageText" alignment-baseline="middle" dominant-baseline="middle" text-anchor="middle" y="1358" x="1420">do OCR</text><path style="fill: none;" marker-end="url(#arrowhead)" stroke="none" stroke-width="2" class="messageLine0" d="M 1420,1395 C 1480,1385 1480,1425 1420,1415"/><text style="font-size: 16px; font-weight: 400;" dy="1em" class="messageText" alignment-baseline="middle" dominant-baseline="middle" text-anchor="middle" y="1508" x="1420">process_text(text, "Symbol")</text><path style="fill: none;" marker-end="url(#arrowhead)" stroke="none" stroke-width="2" class="messageLine0" d="M 1420,1545 C 1480,1535 1480,1575 1420,1565"/><text style="font-size: 16px; font-weight: 400;" dy="1em" class="messageText" alignment-baseline="middle" dominant-baseline="middle" text-anchor="middle" y="1636" x="1218">throw any error</text><line style="stroke-dasharray: 3, 3; fill: none;" marker-end="url(#arrowhead)" stroke="none" stroke-width="2" class="messageLine1" y2="1673" x2="1017" y1="1673" x1="1418"/><text style="font-size: 16px; font-weight: 400;" dy="1em" class="messageText" alignment-baseline="middle" dominant-baseline="middle" text-anchor="middle" y="1688" x="1014">show error message in logging</text><path style="fill: none;" marker-end="url(#arrowhead)" stroke="none" stroke-width="2" class="messageLine0" d="M 1014,1725 C 1074,1715 1074,1755 1014,1745"/><text style="font-size: 16px; font-weight: 400;" dy="1em" class="messageText" alignment-baseline="middle" dominant-baseline="middle" text-anchor="middle" y="1770" x="783">throw the error "the error occured during extract_stock"</text><line style="stroke-dasharray: 3, 3; fill: none;" marker-end="url(#arrowhead)" stroke="none" stroke-width="2" class="messageLine1" y2="1807" x2="554" y1="1807" x1="1012"/><text style="font-size: 16px; font-weight: 400;" dy="1em" class="messageText" alignment-baseline="middle" dominant-baseline="middle" text-anchor="middle" y="1871" x="314">500, "the error occured during extract_stock"</text><line style="stroke-dasharray: 3, 3; fill: none;" marker-end="url(#arrowhead)" stroke="none" stroke-width="2" class="messageLine1" y2="1908" x2="79" y1="1908" x1="549"/><text style="font-size: 16px; font-weight: 400;" dy="1em" class="messageText" alignment-baseline="middle" dominant-baseline="middle" text-anchor="middle" y="1933" x="1218">return Array of Stock Data object</text><text style="font-size: 16px; font-weight: 400;" dy="1em" class="messageText" alignment-baseline="middle" dominant-baseline="middle" text-anchor="middle" y="1952" x="1218">[{stock:XYZ, amount:200, unitPrice:25.25}, {...}, ...]</text><line style="fill: none;" marker-end="url(#arrowhead)" stroke="none" stroke-width="2" class="messageLine0" y2="1991" x2="1017" y1="1991" x1="1418"/><text style="font-size: 16px; font-weight: 400;" dy="1em" class="messageText" alignment-baseline="middle" dominant-baseline="middle" text-anchor="middle" y="2006" x="783">return Array of Stock Data object</text><text style="font-size: 16px; font-weight: 400;" dy="1em" class="messageText" alignment-baseline="middle" dominant-baseline="middle" text-anchor="middle" y="2025" x="783">[{stock:XYZ, amount:200, unitPrice:25.25}, {...}, ...]</text><line style="fill: none;" marker-end="url(#arrowhead)" stroke="none" stroke-width="2" class="messageLine0" y2="2064" x2="554" y1="2064" x1="1012"/><text style="font-size: 16px; font-weight: 400;" dy="1em" class="messageText" alignment-baseline="middle" dominant-baseline="middle" text-anchor="middle" y="2128" x="314">200, "get stock data successful", data: {stocks: [{...}, {...}, ...]}</text><line style="fill: none;" marker-end="url(#arrowhead)" stroke="none" stroke-width="2" class="messageLine0" y2="2165" x2="79" y1="2165" x1="549"/><text style="font-size: 16px; font-weight: 400;" dy="1em" class="messageText" alignment-baseline="middle" dominant-baseline="middle" text-anchor="middle" y="2305" x="311">POST ocr/shot</text><line style="fill: none;" marker-end="url(#arrowhead)" stroke="none" stroke-width="2" class="messageLine0" y2="2342" x2="546" y1="2342" x1="76"/><text style="font-size: 16px; font-weight: 400;" dy="1em" class="messageText" alignment-baseline="middle" dominant-baseline="middle" text-anchor="middle" y="2357" x="780">get_stocks_data(image)</text><line style="fill: none;" marker-end="url(#arrowhead)" stroke="none" stroke-width="2" class="messageLine0" y2="2394" x2="1009" y1="2394" x1="551"/><text style="font-size: 16px; font-weight: 400;" dy="1em" class="messageText" alignment-baseline="middle" dominant-baseline="middle" text-anchor="middle" y="2409" x="1014">verify if each rectangle are specified in correct format and</text><text style="font-size: 16px; font-weight: 400;" dy="1em" class="messageText" alignment-baseline="middle" dominant-baseline="middle" text-anchor="middle" y="2428" x="1014">have 3 rectangles</text><path style="fill: none;" marker-end="url(#arrowhead)" stroke="none" stroke-width="2" class="messageLine0" d="M 1014,2467 C 1074,2457 1074,2497 1014,2487"/><text style="font-size: 16px; font-weight: 400;" dy="1em" class="messageText" alignment-baseline="middle" dominant-baseline="middle" text-anchor="middle" y="2558" x="783">throw the error "image not found"</text><line style="stroke-dasharray: 3, 3; fill: none;" marker-end="url(#arrowhead)" stroke="none" stroke-width="2" class="messageLine1" y2="2595" x2="554" y1="2595" x1="1012"/><text style="font-size: 16px; font-weight: 400;" dy="1em" class="messageText" alignment-baseline="middle" dominant-baseline="middle" text-anchor="middle" y="2659" x="314">400, "image is required"</text><line style="stroke-dasharray: 3, 3; fill: none;" marker-end="url(#arrowhead)" stroke="none" stroke-width="2" class="messageLine1" y2="2696" x2="79" y1="2696" x1="549"/><text style="font-size: 16px; font-weight: 400;" dy="1em" class="messageText" alignment-baseline="middle" dominant-baseline="middle" text-anchor="middle" y="2767" x="783">throw the error "invalid image format"</text><line style="stroke-dasharray: 3, 3; fill: none;" marker-end="url(#arrowhead)" stroke="none" stroke-width="2" class="messageLine1" y2="2804" x2="554" y1="2804" x1="1012"/><text style="font-size: 16px; font-weight: 400;" dy="1em" class="messageText" alignment-baseline="middle" dominant-baseline="middle" text-anchor="middle" y="2868" x="314">405, "invalid image format"</text><line style="stroke-dasharray: 3, 3; fill: none;" marker-end="url(#arrowhead)" stroke="none" stroke-width="2" class="messageLine1" y2="2905" x2="79" y1="2905" x1="549"/><text style="font-size: 16px; font-weight: 400;" dy="1em" class="messageText" alignment-baseline="middle" dominant-baseline="middle" text-anchor="middle" y="2979" x="1215">extract_text(image)</text><line style="fill: none;" marker-end="url(#arrowhead)" stroke="none" stroke-width="2" class="messageLine0" y2="3016" x2="1415" y1="3016" x1="1014"/><text style="font-size: 16px; font-weight: 400;" dy="1em" class="messageText" alignment-baseline="middle" dominant-baseline="middle" text-anchor="middle" y="3031" x="1420">do OCR</text><path style="fill: none;" marker-end="url(#arrowhead)" stroke="none" stroke-width="2" class="messageLine0" d="M 1420,3068 C 1480,3058 1480,3098 1420,3088"/><text style="font-size: 16px; font-weight: 400;" dy="1em" class="messageText" alignment-baseline="middle" dominant-baseline="middle" text-anchor="middle" y="3181" x="1420">process_text(text, "Symbol")</text><path style="fill: none;" marker-end="url(#arrowhead)" stroke="none" stroke-width="2" class="messageLine0" d="M 1420,3218 C 1480,3208 1480,3248 1420,3238"/><text style="font-size: 16px; font-weight: 400;" dy="1em" class="messageText" alignment-baseline="middle" dominant-baseline="middle" text-anchor="middle" y="3309" x="1218">throw any error</text><line style="stroke-dasharray: 3, 3; fill: none;" marker-end="url(#arrowhead)" stroke="none" stroke-width="2" class="messageLine1" y2="3346" x2="1017" y1="3346" x1="1418"/><text style="font-size: 16px; font-weight: 400;" dy="1em" class="messageText" alignment-baseline="middle" dominant-baseline="middle" text-anchor="middle" y="3361" x="1014">show error message in logging</text><path style="fill: none;" marker-end="url(#arrowhead)" stroke="none" stroke-width="2" class="messageLine0" d="M 1014,3398 C 1074,3388 1074,3428 1014,3418"/><text style="font-size: 16px; font-weight: 400;" dy="1em" class="messageText" alignment-baseline="middle" dominant-baseline="middle" text-anchor="middle" y="3443" x="783">throw the error "the error occured during extract_stock"</text><line style="stroke-dasharray: 3, 3; fill: none;" marker-end="url(#arrowhead)" stroke="none" stroke-width="2" class="messageLine1" y2="3480" x2="554" y1="3480" x1="1012"/><text style="font-size: 16px; font-weight: 400;" dy="1em" class="messageText" alignment-baseline="middle" dominant-baseline="middle" text-anchor="middle" y="3544" x="314">500, "the error occured during extract_stock"</text><line style="stroke-dasharray: 3, 3; fill: none;" marker-end="url(#arrowhead)" stroke="none" stroke-width="2" class="messageLine1" y2="3581" x2="79" y1="3581" x1="549"/><text style="font-size: 16px; font-weight: 400;" dy="1em" class="messageText" alignment-baseline="middle" dominant-baseline="middle" text-anchor="middle" y="3606" x="1218">return Array of Stock Data object</text><text style="font-size: 16px; font-weight: 400;" dy="1em" class="messageText" alignment-baseline="middle" dominant-baseline="middle" text-anchor="middle" y="3625" x="1218">[{stock:XYZ, amount:200, unitPrice:25.25}, {...}, ...]</text><line style="fill: none;" marker-end="url(#arrowhead)" stroke="none" stroke-width="2" class="messageLine0" y2="3664" x2="1017" y1="3664" x1="1418"/><text style="font-size: 16px; font-weight: 400;" dy="1em" class="messageText" alignment-baseline="middle" dominant-baseline="middle" text-anchor="middle" y="3679" x="783">return Array of Stock Data object</text><text style="font-size: 16px; font-weight: 400;" dy="1em" class="messageText" alignment-baseline="middle" dominant-baseline="middle" text-anchor="middle" y="3698" x="783">[{stock:XYZ, amount:200, unitPrice:25.25}, {...}, ...]</text><line style="fill: none;" marker-end="url(#arrowhead)" stroke="none" stroke-width="2" class="messageLine0" y2="3737" x2="554" y1="3737" x1="1012"/><text style="font-size: 16px; font-weight: 400;" dy="1em" class="messageText" alignment-baseline="middle" dominant-baseline="middle" text-anchor="middle" y="3801" x="314">200, "get stock data successful", data: {stocks: [{...}, {...}, ...]}</text><line style="fill: none;" marker-end="url(#arrowhead)" stroke="none" stroke-width="2" class="messageLine0" y2="3838" x2="79" y1="3838" x1="549"/><g name="Client" class="actor-man actor-bottom"><line y2="3923" x2="75" y1="3903" x1="75" id="actor-man-torso115"/><line y2="3911" x2="93" y1="3911" x1="57" id="actor-man-arms115"/><line y2="3923" x2="75" y1="3938" x1="57"/><line y2="3938" x2="91" y1="3923" x1="75"/><circle height="65" width="150" r="15" cy="3888" cx="75"/><text style="text-anchor: middle; font-size: 16px; font-weight: 400;" class="actor" alignment-baseline="central" dominant-baseline="central" y="3945.5" x="75"><tspan dy="0" x="75">Client</tspan></text></g></svg>